<svg width="959" height="1774" xmlns="http://www.w3.org/2000/svg" xmlns:xlink="http://www.w3.org/1999/xlink" overflow="hidden"><defs><clipPath id="clip0"><rect x="2559" y="98" width="959" height="1774"/></clipPath><linearGradient x1="2776" y1="602" x2="2690" y2="602" gradientUnits="userSpaceOnUse" spreadMethod="reflect" id="fill1"><stop offset="0" stop-color="#AFAFAF"/><stop offset="0.5" stop-color="#A5A5A5"/><stop offset="1" stop-color="#929292"/></linearGradient><linearGradient x1="3267" y1="602" x2="3181" y2="602" gradientUnits="userSpaceOnUse" spreadMethod="reflect" id="fill2"><stop offset="0" stop-color="#AFAFAF"/><stop offset="0.5" stop-color="#A5A5A5"/><stop offset="1" stop-color="#929292"/></linearGradient><linearGradient x1="3041" y1="899" x2="2955" y2="899" gradientUnits="userSpaceOnUse" spreadMethod="reflect" id="fill3"><stop offset="0" stop-color="#AFAFAF"/><stop offset="0.5" stop-color="#A5A5A5"/><stop offset="1" stop-color="#929292"/></linearGradient><linearGradient x1="3041" y1="1646" x2="2955" y2="1646" gradientUnits="userSpaceOnUse" spreadMethod="reflect" id="fill4"><stop offset="0" stop-color="#AFAFAF"/><stop offset="0.5" stop-color="#A5A5A5"/><stop offset="1" stop-color="#929292"/></linearGradient><linearGradient x1="3041" y1="1334.5" x2="2955" y2="1334.5" gradientUnits="userSpaceOnUse" spreadMethod="reflect" id="fill5"><stop offset="0" stop-color="#AFAFAF"/><stop offset="0.5" stop-color="#A5A5A5"/><stop offset="1" stop-color="#929292"/></linearGradient></defs><g clip-path="url(#clip0)" transform="translate(-2559 -98)"><path d="M2580.5 454.5C2580.5 452.291 2582.29 450.5 2584.5 450.5L2896.5 450.5C2898.71 450.5 2900.5 452.291 2900.5 454.5L2900.5 470.5C2900.5 472.709 2898.71 474.5 2896.5 474.5L2584.5 474.5C2582.29 474.5 2580.5 472.709 2580.5 470.5Z" stroke="#A5A5A5" stroke-width="3.4375" stroke-linejoin="round" stroke-miterlimit="10" fill="#EDEDED" fill-rule="evenodd"/><path d="M3009.5 243.167C3009.5 241.142 3011.14 239.5 3013.17 239.5L3424.83 239.5C3426.86 239.5 3428.5 241.142 3428.5 243.167L3428.5 257.833C3428.5 259.858 3426.86 261.5 3424.83 261.5L3013.17 261.5C3011.14 261.5 3009.5 259.858 3009.5 257.833Z" stroke="#A5A5A5" stroke-width="3.4375" stroke-linejoin="round" stroke-miterlimit="10" fill="#EDEDED" fill-rule="evenodd"/><path d="M3009.5 355.167C3009.5 353.142 3011.14 351.5 3013.17 351.5L3424.83 351.5C3426.86 351.5 3428.5 353.142 3428.5 355.167L3428.5 369.833C3428.5 371.858 3426.86 373.5 3424.83 373.5L3013.17 373.5C3011.14 373.5 3009.5 371.858 3009.5 369.833Z" stroke="#A5A5A5" stroke-width="3.4375" stroke-linejoin="round" stroke-miterlimit="10" fill="#EDEDED" fill-rule="evenodd"/><path d="M3009.5 459.5C3009.5 457.291 3011.29 455.5 3013.5 455.5L3424.5 455.5C3426.71 455.5 3428.5 457.291 3428.5 459.5L3428.5 475.5C3428.5 477.709 3426.71 479.5 3424.5 479.5L3013.5 479.5C3011.29 479.5 3009.5 477.709 3009.5 475.5Z" stroke="#A5A5A5" stroke-width="3.4375" stroke-linejoin="round" stroke-miterlimit="10" fill="#EDEDED" fill-rule="evenodd"/><path d="M2640.67 672.5 3350.5 672.5 3350.5 793.333C3350.5 806.68 3339.68 817.5 3326.33 817.5L2616.5 817.5 2616.5 696.667C2616.5 683.32 2627.32 672.5 2640.67 672.5Z" stroke="#FFFFFF" stroke-width="6.875" stroke-miterlimit="8" fill="#5B9BD5" fill-rule="evenodd"/><text fill="#FFFFFF" font-family="Calibri,Calibri_MSFontService,sans-serif" font-weight="700" font-size="46" transform="matrix(1 0 0 1 2667.84 732)">Compare HGT genes with gene in <tspan font-size="46" x="154.962" y="55">the root genome</tspan></text><path d="M2754.5 541 2754.5 620 2776 620 2733 663 2690 620 2711.5 620 2711.5 541Z" stroke="#A5A5A5" stroke-width="2.29167" stroke-miterlimit="8" fill="url(#fill1)" fill-rule="evenodd"/><path d="M2613 442.333C2613 438.283 2616.28 435 2620.33 435L2691.67 435C2695.72 435 2699 438.283 2699 442.333L2699 471.666C2699 475.717 2695.72 479 2691.67 479L2620.33 479C2616.28 479 2613 475.717 2613 471.666Z" fill="#4472C4" fill-rule="evenodd"/><path d="M2664 459.334C2664 455.283 2667.28 452 2671.33 452L2742.67 452C2746.72 452 2750 455.283 2750 459.334L2750 488.667C2750 492.717 2746.72 496 2742.67 496L2671.33 496C2667.28 496 2664 492.717 2664 488.667Z" fill="#ED7D31" fill-rule="evenodd"/><path d="M2770 448.334C2770 444.283 2773.28 441 2777.33 441L2848.67 441C2852.72 441 2856 444.283 2856 448.334L2856 477.667C2856 481.717 2852.72 485 2848.67 485L2777.33 485C2773.28 485 2770 481.717 2770 477.667Z" fill="#A5A5A5" fill-rule="evenodd"/><text font-family="Arial,Arial_MSFontService,sans-serif" font-weight="700" font-size="46" transform="matrix(1 0 0 1 2592.24 407)">Root <tspan font-size="46" x="0" y="55">genome</tspan></text><path d="M3028 239.334C3028 235.283 3031.28 232 3035.33 232L3106.67 232C3110.72 232 3114 235.283 3114 239.334L3114 268.667C3114 272.717 3110.72 276 3106.67 276L3035.33 276C3031.28 276 3028 272.717 3028 268.667Z" fill="#4472C4" fill-rule="evenodd"/><path d="M3126 239.334C3126 235.283 3129.28 232 3133.33 232L3204.67 232C3208.72 232 3212 235.283 3212 239.334L3212 268.667C3212 272.717 3208.72 276 3204.67 276L3133.33 276C3129.28 276 3126 272.717 3126 268.667Z" fill="#ED7D31" fill-rule="evenodd"/><path d="M3224 239.334C3224 235.283 3227.28 232 3231.33 232L3302.67 232C3306.72 232 3310 235.283 3310 239.334L3310 268.667C3310 272.717 3306.72 276 3302.67 276L3231.33 276C3227.28 276 3224 272.717 3224 268.667Z" fill="#A5A5A5" fill-rule="evenodd"/><path d="M3324 239.334C3324 235.283 3327.28 232 3331.33 232L3402.67 232C3406.72 232 3410 235.283 3410 239.334L3410 268.667C3410 272.717 3406.72 276 3402.67 276L3331.33 276C3327.28 276 3324 272.717 3324 268.667Z" fill="#70AD47" fill-rule="evenodd"/><text font-family="Arial,Arial_MSFontService,sans-serif" font-weight="700" font-size="46" transform="matrix(1 0 0 1 3018.48 159)">HGT source <tspan font-size="46" x="0" y="55">genomes</tspan></text><path d="M3028 345.333C3028 341.283 3031.28 338 3035.33 338L3106.67 338C3110.72 338 3114 341.283 3114 345.333L3114 374.666C3114 378.717 3110.72 382 3106.67 382L3035.33 382C3031.28 382 3028 378.717 3028 374.666Z" fill="#4472C4" fill-rule="evenodd"/><path d="M3126 345.333C3126 341.283 3129.28 338 3133.33 338L3204.67 338C3208.72 338 3212 341.283 3212 345.333L3212 374.666C3212 378.717 3208.72 382 3204.67 382L3133.33 382C3129.28 382 3126 378.717 3126 374.666Z" fill="#5B9BD5" fill-rule="evenodd"/><path d="M3224 345.333C3224 341.283 3227.28 338 3231.33 338L3302.67 338C3306.72 338 3310 341.283 3310 345.333L3310 374.666C3310 378.717 3306.72 382 3302.67 382L3231.33 382C3227.28 382 3224 378.717 3224 374.666Z" fill="#C00000" fill-rule="evenodd"/><path d="M3324 345.333C3324 341.283 3327.28 338 3331.33 338L3402.67 338C3406.72 338 3410 341.283 3410 345.333L3410 374.666C3410 378.717 3406.72 382 3402.67 382L3331.33 382C3327.28 382 3324 378.717 3324 374.666Z" fill="#70AD47" fill-rule="evenodd"/><path d="M3028 450.5C3028 446.358 3031.36 443 3035.5 443L3106.5 443C3110.64 443 3114 446.358 3114 450.5L3114 480.5C3114 484.642 3110.64 488 3106.5 488L3035.5 488C3031.36 488 3028 484.642 3028 480.5Z" fill="#4472C4" fill-rule="evenodd"/><path d="M3126 450.5C3126 446.358 3129.36 443 3133.5 443L3204.5 443C3208.64 443 3212 446.358 3212 450.5L3212 480.5C3212 484.642 3208.64 488 3204.5 488L3133.5 488C3129.36 488 3126 484.642 3126 480.5Z" fill="#5B9BD5" fill-rule="evenodd"/><path d="M3224 450.5C3224 446.358 3227.36 443 3231.5 443L3302.5 443C3306.64 443 3310 446.358 3310 450.5L3310 480.5C3310 484.642 3306.64 488 3302.5 488L3231.5 488C3227.36 488 3224 484.642 3224 480.5Z" fill="#7030A0" fill-rule="evenodd"/><path d="M3324 450.5C3324 446.358 3327.36 443 3331.5 443L3402.5 443C3406.64 443 3410 446.358 3410 450.5L3410 480.5C3410 484.642 3406.64 488 3402.5 488L3331.5 488C3327.36 488 3324 484.642 3324 480.5Z" fill="#70AD47" fill-rule="evenodd"/><path d="M3245.5 541 3245.5 620 3267 620 3224 663 3181 620 3202.5 620 3202.5 541Z" stroke="#A5A5A5" stroke-width="2.29167" stroke-miterlimit="8" fill="url(#fill2)" fill-rule="evenodd"/><path d="M2958.5 180.502C2958.5 140.736 2990.74 108.5 3030.5 108.5L3419.5 108.5C3459.26 108.5 3491.5 140.736 3491.5 180.502L3491.5 468.498C3491.5 508.264 3459.26 540.5 3419.5 540.5L3030.5 540.5C2990.74 540.5 2958.5 508.264 2958.5 468.498Z" stroke="#A5A5A5" stroke-width="3.4375" stroke-linejoin="round" stroke-miterlimit="10" fill="none" fill-rule="evenodd"/><path d="M3055 1061.33C3055 1057.28 3058.28 1054 3062.33 1054L3133.67 1054C3137.72 1054 3141 1057.28 3141 1061.33L3141 1090.67C3141 1094.72 3137.72 1098 3133.67 1098L3062.33 1098C3058.28 1098 3055 1094.72 3055 1090.67Z" fill="#70AD47" fill-rule="evenodd"/><text font-family="Arial,Arial_MSFontService,sans-serif" font-weight="700" font-size="46" transform="matrix(1 0 0 1 2791.96 1024)">Initial HGT pool</text><path d="M2857 1131.33C2857 1127.28 2860.28 1124 2864.33 1124L2935.67 1124C2939.72 1124 2943 1127.28 2943 1131.33L2943 1160.67C2943 1164.72 2939.72 1168 2935.67 1168L2864.33 1168C2860.28 1168 2857 1164.72 2857 1160.67Z" fill="#5B9BD5" fill-rule="evenodd"/><path d="M2955 1131.33C2955 1127.28 2958.28 1124 2962.33 1124L3033.67 1124C3037.72 1124 3041 1127.28 3041 1131.33L3041 1160.67C3041 1164.72 3037.72 1168 3033.67 1168L2962.33 1168C2958.28 1168 2955 1164.72 2955 1160.67Z" fill="#C00000" fill-rule="evenodd"/><path d="M3055 1131.33C3055 1127.28 3058.28 1124 3062.33 1124L3133.67 1124C3137.72 1124 3141 1127.28 3141 1131.33L3141 1160.67C3141 1164.72 3137.72 1168 3133.67 1168L3062.33 1168C3058.28 1168 3055 1164.72 3055 1160.67Z" fill="#70AD47" fill-rule="evenodd"/><path d="M2857 1201.33C2857 1197.28 2860.28 1194 2864.33 1194L2935.67 1194C2939.72 1194 2943 1197.28 2943 1201.33L2943 1230.67C2943 1234.72 2939.72 1238 2935.67 1238L2864.33 1238C2860.28 1238 2857 1234.72 2857 1230.67Z" fill="#5B9BD5" fill-rule="evenodd"/><path d="M2955 1201.33C2955 1197.28 2958.28 1194 2962.33 1194L3033.67 1194C3037.72 1194 3041 1197.28 3041 1201.33L3041 1230.67C3041 1234.72 3037.72 1238 3033.67 1238L2962.33 1238C2958.28 1238 2955 1234.72 2955 1230.67Z" fill="#7030A0" fill-rule="evenodd"/><path d="M3055 1201.33C3055 1197.28 3058.28 1194 3062.33 1194L3133.67 1194C3137.72 1194 3141 1197.28 3141 1201.33L3141 1230.67C3141 1234.72 3137.72 1238 3133.67 1238L3062.33 1238C3058.28 1238 3055 1234.72 3055 1230.67Z" fill="#70AD47" fill-rule="evenodd"/><path d="M2734.5 1024.33C2734.5 998.468 2755.47 977.5 2781.33 977.5L3220.67 977.5C3246.53 977.5 3267.5 998.468 3267.5 1024.33L3267.5 1211.67C3267.5 1237.53 3246.53 1258.5 3220.67 1258.5L2781.33 1258.5C2755.47 1258.5 2734.5 1237.53 2734.5 1211.67Z" stroke="#A5A5A5" stroke-width="3.4375" stroke-linejoin="round" stroke-miterlimit="10" fill="none" fill-rule="evenodd"/><path d="M3019.5 838 3019.5 917 3041 917 2998 960 2955 917 2976.5 917 2976.5 838Z" stroke="#A5A5A5" stroke-width="2.29167" stroke-miterlimit="8" fill="url(#fill3)" fill-rule="evenodd"/><path d="M2640.83 1418.5 3350.5 1418.5 3350.5 1540.17C3350.5 1553.61 3339.61 1564.5 3326.17 1564.5L2616.5 1564.5 2616.5 1442.83C2616.5 1429.39 2627.39 1418.5 2640.83 1418.5Z" stroke="#FFFFFF" stroke-width="6.875" stroke-miterlimit="8" fill="#5B9BD5" fill-rule="evenodd"/><text fill="#FFFFFF" font-family="Calibri,Calibri_MSFontService,sans-serif" font-weight="700" font-size="46" transform="matrix(1 0 0 1 2679.29 1479)">Discard similar genes within the <tspan font-size="46" x="215.119" y="55">HGT pool</tspan><tspan fill="#000000" font-family="Arial,Arial_MSFontService,sans-serif" font-size="46" x="112.671" y="291">Final HGT pool</tspan></text><path d="M3098 1803.5C3098 1799.36 3101.36 1796 3105.5 1796L3176.5 1796C3180.64 1796 3184 1799.36 3184 1803.5L3184 1833.5C3184 1837.64 3180.64 1841 3176.5 1841L3105.5 1841C3101.36 1841 3098 1837.64 3098 1833.5Z" fill="#C00000" fill-rule="evenodd"/><path d="M2794 1804.5C2794 1800.36 2797.36 1797 2801.5 1797L2872.5 1797C2876.64 1797 2880 1800.36 2880 1804.5L2880 1834.5C2880 1838.64 2876.64 1842 2872.5 1842L2801.5 1842C2797.36 1842 2794 1838.64 2794 1834.5Z" fill="#5B9BD5" fill-rule="evenodd"/><path d="M2892 1804.5C2892 1800.36 2895.36 1797 2899.5 1797L2970.5 1797C2974.64 1797 2978 1800.36 2978 1804.5L2978 1834.5C2978 1838.64 2974.64 1842 2970.5 1842L2899.5 1842C2895.36 1842 2892 1838.64 2892 1834.5Z" fill="#7030A0" fill-rule="evenodd"/><path d="M2992 1804.5C2992 1800.36 2995.36 1797 2999.5 1797L3070.5 1797C3074.64 1797 3078 1800.36 3078 1804.5L3078 1834.5C3078 1838.64 3074.64 1842 3070.5 1842L2999.5 1842C2995.36 1842 2992 1838.64 2992 1834.5Z" fill="#70AD47" fill-rule="evenodd"/><path d="M2734.5 1748.83C2734.5 1735.39 2745.39 1724.5 2758.83 1724.5L3243.17 1724.5C3256.61 1724.5 3267.5 1735.39 3267.5 1748.83L3267.5 1846.17C3267.5 1859.61 3256.61 1870.5 3243.17 1870.5L2758.83 1870.5C2745.39 1870.5 2734.5 1859.61 2734.5 1846.17Z" stroke="#A5A5A5" stroke-width="3.4375" stroke-linejoin="round" stroke-miterlimit="10" fill="none" fill-rule="evenodd"/><path d="M3019.5 1585 3019.5 1664 3041 1664 2998 1707 2955 1664 2976.5 1664 2976.5 1585Z" stroke="#A5A5A5" stroke-width="2.29167" stroke-miterlimit="8" fill="url(#fill4)" fill-rule="evenodd"/><path d="M3019.5 1274 3019.5 1352 3041 1352 2998 1395 2955 1352 2976.5 1352 2976.5 1274Z" stroke="#A5A5A5" stroke-width="2.29167" stroke-miterlimit="8" fill="url(#fill5)" fill-rule="evenodd"/></g></svg>