<svg width="2414" height="4021" xmlns="http://www.w3.org/2000/svg" xmlns:xlink="http://www.w3.org/1999/xlink" overflow="hidden"><defs><clipPath id="clip0"><rect x="4899" y="163" width="2414" height="4021"/></clipPath><linearGradient x1="5492" y1="359" x2="5406" y2="359" gradientUnits="userSpaceOnUse" spreadMethod="reflect" id="fill1"><stop offset="0" stop-color="#AFAFAF"/><stop offset="0.5" stop-color="#A5A5A5"/><stop offset="1" stop-color="#929292"/></linearGradient><linearGradient x1="5498" y1="1880" x2="5412" y2="1880" gradientUnits="userSpaceOnUse" spreadMethod="reflect" id="fill2"><stop offset="0" stop-color="#AFAFAF"/><stop offset="0.5" stop-color="#A5A5A5"/><stop offset="1" stop-color="#929292"/></linearGradient><linearGradient x1="5492" y1="3728" x2="5406" y2="3728" gradientUnits="userSpaceOnUse" spreadMethod="reflect" id="fill3"><stop offset="0" stop-color="#AFAFAF"/><stop offset="0.5" stop-color="#A5A5A5"/><stop offset="1" stop-color="#929292"/></linearGradient></defs><g clip-path="url(#clip0)" transform="translate(-4899 -163)"><path d="M6404 491.336C6404 408.308 6471.31 341 6554.34 341L7155.66 341C7238.69 341 7306 408.308 7306 491.336L7306 1102.66C7306 1185.69 7238.69 1253 7155.66 1253L6554.34 1253C6471.31 1253 6404 1185.69 6404 1102.66Z" fill="#FFC000" fill-rule="evenodd" fill-opacity="0.501961"/><text font-family="Calibri,Calibri_MSFontService,sans-serif" font-weight="700" font-size="46" transform="matrix(1 0 0 1 6558.78 593)">Root genome<tspan font-size="46" x="54.9517" y="291">HGT pool</tspan></text><path d="M6920 919.333C6920 915.283 6923.28 912 6927.33 912L6998.67 912C7002.72 912 7006 915.283 7006 919.333L7006 948.666C7006 952.717 7002.72 956 6998.67 956L6927.33 956C6923.28 956 6920 952.717 6920 948.666Z" fill="#C00000" fill-rule="evenodd"/><path d="M6616 920.333C6616 916.283 6619.28 913 6623.33 913L6694.67 913C6698.72 913 6702 916.283 6702 920.333L6702 949.667C6702 953.717 6698.72 957 6694.67 957L6623.33 957C6619.28 957 6616 953.717 6616 949.667Z" fill="#5B9BD5" fill-rule="evenodd"/><path d="M6714 920.333C6714 916.283 6717.28 913 6721.33 913L6792.67 913C6796.72 913 6800 916.283 6800 920.333L6800 949.667C6800 953.717 6796.72 957 6792.67 957L6721.33 957C6717.28 957 6714 953.717 6714 949.667Z" fill="#7030A0" fill-rule="evenodd"/><path d="M6814 920.333C6814 916.283 6817.28 913 6821.33 913L6892.67 913C6896.72 913 6900 916.283 6900 920.333L6900 949.667C6900 953.717 6896.72 957 6892.67 957L6821.33 957C6817.28 957 6814 953.717 6814 949.667Z" fill="#70AD47" fill-rule="evenodd"/><path d="M6556.5 863.834C6556.5 850.394 6567.39 839.5 6580.83 839.5L7065.17 839.5C7078.61 839.5 7089.5 850.394 7089.5 863.834L7089.5 961.166C7089.5 974.605 7078.61 985.5 7065.17 985.5L6580.83 985.5C6567.39 985.5 6556.5 974.605 6556.5 961.166Z" stroke="#A5A5A5" stroke-width="3.4375" stroke-linejoin="round" stroke-miterlimit="10" fill="none" fill-rule="evenodd"/><path d="M7257.5 467.833C7257.5 505.573 7074.38 536.167 6848.5 536.167 6622.62 536.167 6439.5 505.573 6439.5 467.833" stroke="#A5A5A5" stroke-width="3.4375" stroke-linejoin="round" stroke-miterlimit="10" fill="none" fill-rule="evenodd"/><path d="M6439.5 467.833C6439.5 430.094 6622.62 399.5 6848.5 399.5 7074.38 399.5 7257.5 430.094 7257.5 467.833L7257.5 741.167C7257.5 778.906 7074.38 809.5 6848.5 809.5 6622.62 809.5 6439.5 778.906 6439.5 741.167Z" stroke="#A5A5A5" stroke-width="3.4375" stroke-linejoin="round" stroke-miterlimit="10" fill="none" fill-rule="evenodd"/><text font-family="Calibri,Calibri_MSFontService,sans-serif" font-weight="700" font-size="46" transform="matrix(1 0 0 1 6555.82 478)">Synthetic population</text><path d="M5108.67 166.5 5818.5 166.5 5818.5 287.333C5818.5 300.68 5807.68 311.5 5794.33 311.5L5084.5 311.5 5084.5 190.667C5084.5 177.32 5095.32 166.5 5108.67 166.5Z" stroke="#FFFFFF" stroke-width="6.875" stroke-miterlimit="8" fill="#5B9BD5" fill-rule="evenodd"/><text fill="#FFFFFF" font-family="Calibri,Calibri_MSFontService,sans-serif" font-weight="700" font-size="46" transform="matrix(1 0 0 1 5144.94 226)">Randomly select a genome from <tspan font-size="46" x="48.6982" y="55">the population and clone it</tspan></text><path d="M5242.5 575 5452 482.5 5661.5 575 5452 667.5Z" stroke="#FFFFFF" stroke-width="6.875" stroke-miterlimit="8" fill="#70AD47" fill-rule="evenodd"/><text fill="#FFFFFF" font-family="Calibri,Calibri_MSFontService,sans-serif" font-weight="700" font-size="46" transform="matrix(1 0 0 1 5382.42 563)">Variate <tspan font-size="46" x="12.3291" y="55">gene?</tspan></text><path d="M5535.33 778.5 5677.5 778.5 5677.5 852.667C5677.5 860.859 5670.86 867.5 5662.67 867.5L5520.5 867.5 5520.5 793.334C5520.5 785.141 5527.14 778.5 5535.33 778.5Z" stroke="#FFFFFF" stroke-width="6.875" stroke-miterlimit="8" fill="#5B9BD5" fill-rule="evenodd"/><text fill="#FFFFFF" font-family="Calibri,Calibri_MSFontService,sans-serif" font-weight="700" font-size="46" transform="matrix(1 0 0 1 5562.61 838)">Sub</text><path d="M5700.33 778.5 5843.5 778.5 5843.5 852.667C5843.5 860.859 5836.86 867.5 5828.67 867.5L5685.5 867.5 5685.5 793.334C5685.5 785.141 5692.14 778.5 5700.33 778.5Z" stroke="#FFFFFF" stroke-width="6.875" stroke-miterlimit="8" fill="#5B9BD5" fill-rule="evenodd"/><text fill="#FFFFFF" font-family="Calibri,Calibri_MSFontService,sans-serif" font-weight="700" font-size="46" transform="matrix(1 0 0 1 5742.77 838)">IN</text><path d="M5866.33 778.5 6008.5 778.5 6008.5 852.667C6008.5 860.859 6001.86 867.5 5993.67 867.5L5851.5 867.5 5851.5 793.334C5851.5 785.141 5858.14 778.5 5866.33 778.5Z" stroke="#FFFFFF" stroke-width="6.875" stroke-miterlimit="8" fill="#5B9BD5" fill-rule="evenodd"/><text fill="#FFFFFF" font-family="Calibri,Calibri_MSFontService,sans-serif" font-weight="700" font-size="46" transform="matrix(1 0 0 1 5894.56 838)">DEL</text><path d="M5289.5 1426 5545 1333.5 5800.5 1426 5545 1518.5Z" stroke="#FFFFFF" stroke-width="6.875" stroke-miterlimit="8" fill="#70AD47" fill-rule="evenodd"/><text fill="#FFFFFF" font-family="Calibri,Calibri_MSFontService,sans-serif" font-weight="700" font-size="46" transform="matrix(1 0 0 1 5453.92 1413)">Duplicate <tspan font-size="46" x="33.8022" y="55">gene?</tspan></text><path d="M5587.83 1595.5 6122.5 1595.5 6122.5 1717.17C6122.5 1730.61 6111.61 1741.5 6098.17 1741.5L5563.5 1741.5 5563.5 1619.83C5563.5 1606.39 5574.39 1595.5 5587.83 1595.5Z" stroke="#FFFFFF" stroke-width="6.875" stroke-miterlimit="8" fill="#5B9BD5" fill-rule="evenodd"/><text fill="#FFFFFF" font-family="Calibri,Calibri_MSFontService,sans-serif" font-weight="700" font-size="46" transform="matrix(1 0 0 1 5604.18 1656)">Randomly pick a location<tspan font-size="46" x="55.5728" y="55">and insert the copy </tspan></text><path d="M0-1.14583 169.269-1.14583 169.269 51.7419 166.978 51.7419 166.978 0 168.124 1.14583 0 1.14583ZM181.874 47.1585 168.124 74.6585 154.374 47.1585Z" fill="#A5A5A5" transform="matrix(-1 1.22465e-16 1.22465e-16 1 5766.12 703)"/><path d="M5661 573.854 5765.11 573.854 5765.11 755.544 5762.82 755.544 5762.82 575 5763.97 576.146 5661 576.146ZM5777.72 750.96 5763.97 778.46 5750.22 750.96Z" fill="#A5A5A5"/><path d="M5476.5 1044.5 5764.5 951.5 6052.5 1044.5 5764.5 1137.5Z" stroke="#FFFFFF" stroke-width="6.875" stroke-miterlimit="8" fill="#70AD47" fill-rule="evenodd"/><text fill="#FFFFFF" font-family="Calibri,Calibri_MSFontService,sans-serif" font-weight="700" font-size="46" transform="matrix(1 0 0 1 5683.47 1032)">For each <tspan font-size="46" x="-20.625" y="55">nucleotide</tspan></text><path d="M0-1.14583 43.3737-1.14583 43.3737 165.832 42.2278 164.686 61.539 164.686 61.539 166.978 41.082 166.978 41.082 0 42.2278 1.14583 0 1.14583ZM56.9557 152.082 84.4557 165.832 56.9557 179.582Z" fill="#A5A5A5" transform="matrix(1.83697e-16 1 1 -1.83697e-16 5598 867)"/><path d="M5767.73 869 5767.73 912.373 5762 912.373 5763.15 911.228 5763.15 930.539 5760.85 930.539 5760.85 910.082 5766.58 910.082 5765.44 911.228 5765.44 869ZM5775.75 925.956 5762 953.456 5748.25 925.956Z" fill="#A5A5A5"/><path d="M5930.98 867 5930.98 910.374 5764 910.374 5765.15 909.228 5765.15 928.539 5762.85 928.539 5762.85 908.082 5929.83 908.082 5928.69 909.228 5928.69 867ZM5777.75 923.956 5764 951.456 5750.25 923.956Z" fill="#A5A5A5"/><path d="M6052.28 1042.53 6134.78 1042.53 6133.63 1043.67 6133.63 658.69 6134.78 659.836 5786.91 659.721 5786.91 657.429 6135.92 657.545 6135.92 1044.82 6052.28 1044.82ZM5791.15 672.436 5764 658 5791.84 644.945Z" fill="#A5A5A5"/><path d="M5661 573.854 5767.4 573.854 5767.4 689.283 5765.11 689.283 5765.11 575 5766.26 576.146 5661 576.146ZM5780.01 684.7 5766.26 712.2 5752.51 684.7Z" fill="#A5A5A5"/><path d="M5769 700.854 5931.39 700.854 5931.39 755.426 5929.1 755.426 5929.1 702 5930.25 703.146 5769 703.146ZM5944 750.842 5930.25 778.342 5916.5 750.842Z" fill="#A5A5A5"/><path d="M0-1.14583 567.523-1.14583 567.523 92.989 566.377 91.8431 642.337 91.8431 642.337 94.1348 565.231 94.1348 565.231 0 566.377 1.14583 0 1.14583ZM637.753 79.239 665.253 92.989 637.753 106.739Z" fill="#A5A5A5" transform="matrix(1.83697e-16 1 1 -1.83697e-16 5451 667)"/><path d="M5764.67 1137 5764.67 1235.99 5544 1235.99 5545.15 1234.84 5545.15 1309.77 5542.85 1309.77 5542.85 1233.7 5763.52 1233.7 5762.38 1234.84 5762.38 1137ZM5557.75 1305.18 5544 1332.68 5530.25 1305.18Z" fill="#A5A5A5"/><path d="M0-1.14583 86.5167-1.14583 86.5167 0.000360892 85.3709-1.14547 147.825-1.14547 147.825 1.14619 84.2251 1.14619 84.2251 0 85.3709 1.14583 0 1.14583ZM143.241-13.7496 170.741 0.000360892 143.241 13.7504Z" fill="#A5A5A5" transform="matrix(1.83697e-16 1 1 -1.83697e-16 5451 311)"/><path d="M5800 1423.85 5843.62 1423.85 5843.62 1571.69 5841.33 1571.69 5841.33 1425 5842.48 1426.15 5800 1426.15ZM5856.23 1567.11 5842.48 1594.61 5828.73 1567.11Z" fill="#A5A5A5"/><path d="M5270.17 401.5 6198.5 401.5 6198.5 1652.83C6198.5 1755.37 6115.37 1838.5 6012.83 1838.5L5084.5 1838.5 5084.5 587.171C5084.5 484.628 5167.63 401.5 5270.17 401.5Z" stroke="#A5A5A5" stroke-width="3.4375" stroke-linejoin="round" stroke-miterlimit="10" fill="none" fill-rule="evenodd"/><text fill="#767171" font-family="Calibri,Calibri_MSFontService,sans-serif" font-weight="700" font-size="46" transform="matrix(1 0 0 1 5924.46 449)">For each gene</text><path d="M5843.73 1741 5843.73 1791.89 5455 1791.89 5456.15 1790.75 5456.15 1817.58 5453.85 1817.58 5453.85 1789.6 5842.58 1789.6 5841.44 1790.75 5841.44 1741ZM5468.75 1812.99 5455 1840.49 5441.25 1812.99Z" fill="#A5A5A5"/><path d="M5289 1426.15 5206.5 1426.15 5207.65 1425 5207.65 1789.88 5206.5 1788.73 5456.21 1788.73 5456.21 1816.72 5453.92 1816.72 5453.92 1789.88 5455.07 1791.03 5205.35 1791.03 5205.35 1423.85 5289 1423.85ZM5468.82 1812.14 5455.07 1839.64 5441.32 1812.14Z" fill="#A5A5A5"/><path d="M5270.17 1931.5 6198.5 1931.5 6198.5 3494.83C6198.5 3597.37 6115.37 3680.5 6012.83 3680.5L5084.5 3680.5 5084.5 2117.17C5084.5 2014.63 5167.63 1931.5 5270.17 1931.5Z" stroke="#A5A5A5" stroke-width="3.4375" stroke-linejoin="round" stroke-miterlimit="10" fill="none" fill-rule="evenodd"/><text fill="#767171" font-family="Calibri,Calibri_MSFontService,sans-serif" font-weight="700" font-size="46" transform="matrix(1 0 0 1 5728.74 1983)">For a given variation set <tspan font-size="46" x="242.917" y="55">percentage</tspan></text><path d="M5470.5 319 5470.5 359 5492 359 5449 399 5406 359 5427.5 359 5427.5 319Z" stroke="#A5A5A5" stroke-width="2.29167" stroke-miterlimit="8" fill="url(#fill1)" fill-rule="evenodd"/><path d="M5476.5 1840 5476.5 1880 5498 1880 5455 1920 5412 1880 5433.5 1880 5433.5 1840Z" stroke="#A5A5A5" stroke-width="2.29167" stroke-miterlimit="8" fill="url(#fill2)" fill-rule="evenodd"/><path d="M5199.5 2084.5 5455.5 1991.5 5711.5 2084.5 5455.5 2177.5Z" stroke="#FFFFFF" stroke-width="6.875" stroke-miterlimit="8" fill="#70AD47" fill-rule="evenodd"/><text fill="#FFFFFF" font-family="Calibri,Calibri_MSFontService,sans-serif" font-weight="700" font-size="46" transform="matrix(1 0 0 1 5377.3 2072)">Remove <tspan font-size="46" x="20.9229" y="55">gene?</tspan></text><path d="M5456.15 1920 5456.15 1956.97 5455 1956.97 5456.15 1955.82 5456.15 1968.72 5453.85 1968.72 5453.85 1954.67 5455 1954.67 5453.85 1955.82 5453.85 1920ZM5468.75 1964.14 5455 1991.64 5441.25 1964.14Z" fill="#A5A5A5"/><path d="M5587.83 2193.5 6122.5 2193.5 6122.5 2315.17C6122.5 2328.61 6111.61 2339.5 6098.17 2339.5L5563.5 2339.5 5563.5 2217.83C5563.5 2204.39 5574.39 2193.5 5587.83 2193.5Z" stroke="#FFFFFF" stroke-width="6.875" stroke-miterlimit="8" fill="#5B9BD5" fill-rule="evenodd"/><text fill="#FFFFFF" font-family="Calibri,Calibri_MSFontService,sans-serif" font-weight="700" font-size="46" transform="matrix(1 0 0 1 5635.11 2254)">Randomly pick a gene <tspan font-size="46" x="74.7769" y="55">and remove it</tspan></text><path d="M5175.5 2563.5 5455.5 2470.5 5735.5 2563.5 5455.5 2656.5Z" stroke="#FFFFFF" stroke-width="6.875" stroke-miterlimit="8" fill="#70AD47" fill-rule="evenodd"/><text fill="#FFFFFF" font-family="Calibri,Calibri_MSFontService,sans-serif" font-weight="700" font-size="46" transform="matrix(1 0 0 1 5354.09 2551)">Add a new <tspan font-size="46" x="44.1143" y="55">gene?</tspan></text><path d="M5464.5 2786 5744.5 2673.5 6024.5 2786 5744.5 2898.5Z" stroke="#FFFFFF" stroke-width="6.875" stroke-miterlimit="8" fill="#70AD47" fill-rule="evenodd"/><text fill="#FFFFFF" font-family="Calibri,Calibri_MSFontService,sans-serif" font-weight="700" font-size="46" transform="matrix(1 0 0 1 5683.55 2746)">Is HGT <tspan font-size="46" x="18.0586" y="55">pool </tspan><tspan font-size="46" x="-11.1602" y="110">empty?</tspan></text><path d="M5763.67 2979.5 6172.5 2979.5 6172.5 3205.33C6172.5 3230.28 6152.28 3250.5 6127.33 3250.5L5718.5 3250.5 5718.5 3024.67C5718.5 2999.72 5738.72 2979.5 5763.67 2979.5Z" stroke="#FFFFFF" stroke-width="6.875" stroke-miterlimit="8" fill="#5B9BD5" fill-rule="evenodd"/><text fill="#FFFFFF" font-family="Calibri,Calibri_MSFontService,sans-serif" font-weight="700" font-size="46" transform="matrix(1 0 0 1 5776.94 3048)">Randomly pick an <tspan font-size="46" x="35.8184" y="55">HGT gene and </tspan><tspan font-size="46" x="-11.4585" y="110">remove it from the </tspan><tspan font-size="46" x="125.767" y="165">pool</tspan></text><path d="M5242.5 2990.5 5674.5 2990.5 5674.5 3100.5C5674.5 3112.65 5664.65 3122.5 5652.5 3122.5L5220.5 3122.5 5220.5 3012.5C5220.5 3000.35 5230.35 2990.5 5242.5 2990.5Z" stroke="#FFFFFF" stroke-width="6.875" stroke-miterlimit="8" fill="#5B9BD5" fill-rule="evenodd"/><text fill="#FFFFFF" font-family="Calibri,Calibri_MSFontService,sans-serif" font-weight="700" font-size="46" transform="matrix(1 0 0 1 5288.43 3044)">Create a random <tspan font-size="46" x="68.4751" y="55">sequence</tspan></text><path d="M5530.5 3330.5 5962.5 3330.5 5962.5 3440.5C5962.5 3452.65 5952.65 3462.5 5940.5 3462.5L5508.5 3462.5 5508.5 3352.5C5508.5 3340.35 5518.35 3330.5 5530.5 3330.5Z" stroke="#FFFFFF" stroke-width="6.875" stroke-miterlimit="8" fill="#5B9BD5" fill-rule="evenodd"/><text fill="#FFFFFF" font-family="Calibri,Calibri_MSFontService,sans-serif" font-weight="700" font-size="46" transform="matrix(1 0 0 1 5596.81 3384)">Insert the new <tspan font-size="46" x="91.9414" y="55">gene</tspan></text><path d="M6543.5 641.5C6543.5 639.291 6545.29 637.5 6547.5 637.5L6859.5 637.5C6861.71 637.5 6863.5 639.291 6863.5 641.5L6863.5 657.5C6863.5 659.709 6861.71 661.5 6859.5 661.5L6547.5 661.5C6545.29 661.5 6543.5 659.709 6543.5 657.5Z" stroke="#A5A5A5" stroke-width="3.4375" stroke-linejoin="round" stroke-miterlimit="10" fill="#EDEDED" fill-rule="evenodd"/><path d="M6576 629.5C6576 625.358 6579.36 622 6583.5 622L6654.5 622C6658.64 622 6662 625.358 6662 629.5L6662 659.5C6662 663.642 6658.64 667 6654.5 667L6583.5 667C6579.36 667 6576 663.642 6576 659.5Z" fill="#4472C4" fill-rule="evenodd"/><path d="M6627 646.334C6627 642.283 6630.28 639 6634.33 639L6705.67 639C6709.72 639 6713 642.283 6713 646.334L6713 675.667C6713 679.717 6709.72 683 6705.67 683L6634.33 683C6630.28 683 6627 679.717 6627 675.667Z" fill="#ED7D31" fill-rule="evenodd"/><path d="M6733 635.334C6733 631.283 6736.28 628 6740.33 628L6811.67 628C6815.72 628 6819 631.283 6819 635.334L6819 664.667C6819 668.717 6815.72 672 6811.67 672L6740.33 672C6736.28 672 6733 668.717 6733 664.667Z" fill="#A5A5A5" fill-rule="evenodd"/><path d="M5711 2082.85 5844.14 2082.85 5844.14 2170.11 5841.85 2170.11 5841.85 2084 5843 2085.15 5711 2085.15ZM5856.75 2165.53 5843 2193.03 5829.25 2165.53Z" fill="#A5A5A5"/><path d="M5199 2085.15 5116.5 2085.15 5117.65 2084 5117.65 2399.05 5116.5 2397.91 5455.73 2397.91 5455.73 2447.14 5453.44 2447.14 5453.44 2399.05 5454.59 2400.2 5115.35 2400.2 5115.35 2082.85 5199 2082.85ZM5468.34 2442.56 5454.59 2470.06 5440.84 2442.56Z" fill="#A5A5A5"/><path d="M5843.73 2339 5843.73 2405.9 5455 2405.9 5456.15 2404.75 5456.15 2447.58 5453.85 2447.58 5453.85 2403.6 5842.58 2403.6 5841.44 2404.75 5841.44 2339ZM5468.75 2443 5455 2470.5 5441.25 2443Z" fill="#A5A5A5"/><path d="M5735 2561.85 5745.55 2561.85 5745.55 2649.98 5743.26 2649.98 5743.26 2563 5744.41 2564.15 5735 2564.15ZM5758.16 2645.4 5744.41 2672.9 5730.66 2645.4Z" fill="#A5A5A5"/><path d="M5175 2564.15 5149.79 2564.15 5150.94 2563 5150.94 3563.5 5149.79 3562.35 5642.59 3562.35 5642.59 3657.46 5640.3 3657.46 5640.3 3563.5 5641.44 3564.65 5148.65 3564.65 5148.65 2561.85 5175 2561.85ZM5655.19 3652.88 5641.44 3680.38 5627.69 3652.88Z" fill="#A5A5A5"/><path d="M0-1.14583 18.6368-1.14583 18.6368 181.714 16.3452 181.714 16.3452 0 17.491 1.14583 0 1.14583ZM31.241 177.13 17.491 204.63 3.74101 177.13Z" fill="#A5A5A5" transform="matrix(-1 1.22465e-16 1.22465e-16 1 5464.49 2785)"/><path d="M6024 2783.85 6069.64 2783.85 6069.64 2965.34 6067.35 2965.34 6067.35 2785 6068.49 2786.15 6024 2786.15ZM6082.24 2960.75 6068.49 2988.25 6054.74 2960.75Z" fill="#A5A5A5"/><path d="M5946.63 3250 5946.63 3290.93 5735 3290.93 5736.15 3289.78 5736.15 3306.65 5733.85 3306.65 5733.85 3288.64 5945.49 3288.64 5944.34 3289.78 5944.34 3250ZM5748.75 3302.06 5735 3329.56 5721.25 3302.06Z" fill="#A5A5A5"/><path d="M0-1.14583 170.546-1.14583 170.546 288.044 169.4 286.898 185.258 286.898 185.258 289.19 168.254 289.19 168.254 0 169.4 1.14583 0 1.14583ZM180.675 274.294 208.175 288.044 180.675 301.794Z" fill="#A5A5A5" transform="matrix(1.83697e-16 1 1 -1.83697e-16 5447 3122)"/><path d="M5735.62 3462 5735.62 3568.52 5641 3568.52 5642.15 3567.37 5642.15 3657.89 5639.85 3657.89 5639.85 3566.23 5734.48 3566.23 5733.33 3567.37 5733.33 3462ZM5654.75 3653.31 5641 3680.81 5627.25 3653.31Z" fill="#A5A5A5"/><path d="M5771 304.5C5771 283.789 5789.58 267 5812.5 267 5835.42 267 5854 283.789 5854 304.5 5854 325.211 5835.42 342 5812.5 342 5789.58 342 5771 325.211 5771 304.5Z" fill="#FFC000" fill-rule="evenodd"/><text fill="#FFFFFF" font-family="Calibri,Calibri_MSFontService,sans-serif" font-weight="700" font-size="55" transform="matrix(1 0 0 1 5798.24 322)">1</text><path d="M6375 363.5C6375 342.789 6393.58 326 6416.5 326 6439.42 326 6458 342.789 6458 363.5 6458 384.211 6439.42 401 6416.5 401 6393.58 401 6375 384.211 6375 363.5Z" fill="#FFC000" fill-rule="evenodd"/><text fill="#FFFFFF" font-family="Calibri,Calibri_MSFontService,sans-serif" font-weight="700" font-size="55" transform="matrix(1 0 0 1 6402.77 382)">1<tspan fill="#000000" font-size="46" x="272.17" y="750">Selected genome</tspan></text><path d="M6659.5 1180.5C6659.5 1178.29 6661.29 1176.5 6663.5 1176.5L6975.5 1176.5C6977.71 1176.5 6979.5 1178.29 6979.5 1180.5L6979.5 1196.5C6979.5 1198.71 6977.71 1200.5 6975.5 1200.5L6663.5 1200.5C6661.29 1200.5 6659.5 1198.71 6659.5 1196.5Z" stroke="#A5A5A5" stroke-width="3.4375" stroke-linejoin="round" stroke-miterlimit="10" fill="#EDEDED" fill-rule="evenodd"/><path d="M6692 1168.5C6692 1164.36 6695.36 1161 6699.5 1161L6770.5 1161C6774.64 1161 6778 1164.36 6778 1168.5L6778 1198.5C6778 1202.64 6774.64 1206 6770.5 1206L6699.5 1206C6695.36 1206 6692 1202.64 6692 1198.5Z" fill="#4472C4" fill-rule="evenodd"/><path d="M6743 1185.33C6743 1181.28 6746.28 1178 6750.33 1178L6821.67 1178C6825.72 1178 6829 1181.28 6829 1185.33L6829 1214.67C6829 1218.72 6825.72 1222 6821.67 1222L6750.33 1222C6746.28 1222 6743 1218.72 6743 1214.67Z" fill="#ED7D31" fill-rule="evenodd"/><path d="M6850 1174.33C6850 1170.28 6853.28 1167 6857.33 1167L6928.67 1167C6932.72 1167 6936 1170.28 6936 1174.33L6936 1203.67C6936 1207.72 6932.72 1211 6928.67 1211L6857.33 1211C6853.28 1211 6850 1207.72 6850 1203.67Z" fill="#A5A5A5" fill-rule="evenodd"/><path d="M6404 1611.5C6404 1590.24 6421.24 1573 6442.5 1573L7267.5 1573C7288.76 1573 7306 1590.24 7306 1611.5L7306 1765.5C7306 1786.76 7288.76 1804 7267.5 1804L6442.5 1804C6421.24 1804 6404 1786.76 6404 1765.5Z" fill="#FFC000" fill-rule="evenodd" fill-opacity="0.501961"/><path d="M6375 1596C6375 1575.01 6393.58 1558 6416.5 1558 6439.42 1558 6458 1575.01 6458 1596 6458 1616.99 6439.42 1634 6416.5 1634 6393.58 1634 6375 1616.99 6375 1596Z" fill="#FFC000" fill-rule="evenodd"/><text fill="#FFFFFF" font-family="Calibri,Calibri_MSFontService,sans-serif" font-weight="700" font-size="55" transform="matrix(1 0 0 1 6402.77 1614)">2<tspan fill="#000000" font-size="46" x="132.125" y="54">Selected genome</tspan></text><path d="M6512.5 1711.83C6512.5 1709.99 6513.99 1708.5 6515.83 1708.5L6899.17 1708.5C6901.01 1708.5 6902.5 1709.99 6902.5 1711.83L6902.5 1725.17C6902.5 1727.01 6901.01 1728.5 6899.17 1728.5L6515.83 1728.5C6513.99 1728.5 6512.5 1727.01 6512.5 1725.17Z" stroke="#A5A5A5" stroke-width="3.4375" stroke-linejoin="round" stroke-miterlimit="10" fill="#EDEDED" fill-rule="evenodd"/><path d="M6644 1700.33C6644 1696.28 6647.28 1693 6651.33 1693L6722.67 1693C6726.72 1693 6730 1696.28 6730 1700.33L6730 1729.67C6730 1733.72 6726.72 1737 6722.67 1737L6651.33 1737C6647.28 1737 6644 1733.72 6644 1729.67Z" fill="#4472C4" fill-rule="evenodd"/><path d="M6695 1716.5C6695 1712.36 6698.36 1709 6702.5 1709L6773.5 1709C6777.64 1709 6781 1712.36 6781 1716.5L6781 1746.5C6781 1750.64 6777.64 1754 6773.5 1754L6702.5 1754C6698.36 1754 6695 1750.64 6695 1746.5Z" fill="#ED7D31" fill-rule="evenodd"/><path d="M6801 1705.5C6801 1701.36 6804.36 1698 6808.5 1698L6879.5 1698C6883.64 1698 6887 1701.36 6887 1705.5L6887 1735.5C6887 1739.64 6883.64 1743 6879.5 1743L6808.5 1743C6804.36 1743 6801 1739.64 6801 1735.5Z" fill="#A5A5A5" fill-rule="evenodd"/><path d="M6540 1703.33C6540 1699.28 6543.28 1696 6547.33 1696L6618.67 1696C6622.72 1696 6626 1699.28 6626 1703.33L6626 1732.67C6626 1736.72 6622.72 1740 6618.67 1740L6547.33 1740C6543.28 1740 6540 1736.72 6540 1732.67Z" fill="#A5A5A5" fill-rule="evenodd"/><path d="M5673 1785.5C5673 1764.79 5691.58 1748 5714.5 1748 5737.42 1748 5756 1764.79 5756 1785.5 5756 1806.21 5737.42 1823 5714.5 1823 5691.58 1823 5673 1806.21 5673 1785.5Z" fill="#FFC000" fill-rule="evenodd"/><text fill="#FFFFFF" font-family="Calibri,Calibri_MSFontService,sans-serif" font-weight="700" font-size="55" transform="matrix(1 0 0 1 5700.32 1804)">2</text><path d="M6404 2215.5C6404 2194.24 6421.24 2177 6442.5 2177L7267.5 2177C7288.76 2177 7306 2194.24 7306 2215.5L7306 2369.5C7306 2390.76 7288.76 2408 7267.5 2408L6442.5 2408C6421.24 2408 6404 2390.76 6404 2369.5Z" fill="#FFC000" fill-rule="evenodd" fill-opacity="0.501961"/><path d="M6375 2200.5C6375 2179.79 6393.58 2163 6416.5 2163 6439.42 2163 6458 2179.79 6458 2200.5 6458 2221.21 6439.42 2238 6416.5 2238 6393.58 2238 6375 2221.21 6375 2200.5Z" fill="#FFC000" fill-rule="evenodd"/><text fill="#FFFFFF" font-family="Calibri,Calibri_MSFontService,sans-serif" font-weight="700" font-size="55" transform="matrix(1 0 0 1 6402.77 2218)">3<tspan fill="#000000" font-size="46" x="132.125" y="54">Selected genome</tspan></text><path d="M6558.5 2316.67C6558.5 2314.37 6560.37 2312.5 6562.67 2312.5L6898.33 2312.5C6900.63 2312.5 6902.5 2314.37 6902.5 2316.67L6902.5 2333.33C6902.5 2335.63 6900.63 2337.5 6898.33 2337.5L6562.67 2337.5C6560.37 2337.5 6558.5 2335.63 6558.5 2333.33Z" stroke="#A5A5A5" stroke-width="3.4375" stroke-linejoin="round" stroke-miterlimit="10" fill="#EDEDED" fill-rule="evenodd"/><path d="M6695 2321.33C6695 2317.28 6698.28 2314 6702.33 2314L6773.67 2314C6777.72 2314 6781 2317.28 6781 2321.33L6781 2350.67C6781 2354.72 6777.72 2358 6773.67 2358L6702.33 2358C6698.28 2358 6695 2354.72 6695 2350.67Z" fill="#ED7D31" fill-rule="evenodd"/><path d="M6801 2310.33C6801 2306.28 6804.28 2303 6808.33 2303L6879.67 2303C6883.72 2303 6887 2306.28 6887 2310.33L6887 2339.67C6887 2343.72 6883.72 2347 6879.67 2347L6808.33 2347C6804.28 2347 6801 2343.72 6801 2339.67Z" fill="#A5A5A5" fill-rule="evenodd"/><path d="M6586 2307.5C6586 2303.36 6589.36 2300 6593.5 2300L6664.5 2300C6668.64 2300 6672 2303.36 6672 2307.5L6672 2337.5C6672 2341.64 6668.64 2345 6664.5 2345L6593.5 2345C6589.36 2345 6586 2341.64 6586 2337.5Z" fill="#A5A5A5" fill-rule="evenodd"/><path d="M5633 2401.5C5633 2380.79 5651.36 2364 5674 2364 5696.64 2364 5715 2380.79 5715 2401.5 5715 2422.21 5696.64 2439 5674 2439 5651.36 2439 5633 2422.21 5633 2401.5Z" fill="#FFC000" fill-rule="evenodd"/><text fill="#FFFFFF" font-family="Calibri,Calibri_MSFontService,sans-serif" font-weight="700" font-size="55" transform="matrix(1 0 0 1 5659.83 2420)">3</text><path d="M6397 2732C6397 2690.03 6431.03 2656 6473 2656L7223 2656C7264.97 2656 7299 2690.03 7299 2732L7299 3036C7299 3077.97 7264.97 3112 7223 3112L6473 3112C6431.03 3112 6397 3077.97 6397 3036Z" fill="#FFC000" fill-rule="evenodd" fill-opacity="0.501961"/><path d="M6369 2678.5C6369 2657.79 6387.36 2641 6410 2641 6432.64 2641 6451 2657.79 6451 2678.5 6451 2699.21 6432.64 2716 6410 2716 6387.36 2716 6369 2699.21 6369 2678.5Z" fill="#FFC000" fill-rule="evenodd"/><text fill="#FFFFFF" font-family="Calibri,Calibri_MSFontService,sans-serif" font-weight="700" font-size="55" transform="matrix(1 0 0 1 6396.06 2697)">4<tspan fill="#000000" font-size="46" x="86.6172" y="259">Selected genome</tspan></text><path d="M6506.5 3001C6506.5 2998.51 6508.51 2996.5 6511 2996.5L6955 2996.5C6957.49 2996.5 6959.5 2998.51 6959.5 3001L6959.5 3019C6959.5 3021.49 6957.49 3023.5 6955 3023.5L6511 3023.5C6508.51 3023.5 6506.5 3021.49 6506.5 3019Z" stroke="#A5A5A5" stroke-width="3.4375" stroke-linejoin="round" stroke-miterlimit="10" fill="#EDEDED" fill-rule="evenodd"/><path d="M6642 3005.33C6642 3001.28 6645.28 2998 6649.33 2998L6720.67 2998C6724.72 2998 6728 3001.28 6728 3005.33L6728 3034.67C6728 3038.72 6724.72 3042 6720.67 3042L6649.33 3042C6645.28 3042 6642 3038.72 6642 3034.67Z" fill="#ED7D31" fill-rule="evenodd"/><path d="M6837 2994.5C6837 2990.36 6840.36 2987 6844.5 2987L6915.5 2987C6919.64 2987 6923 2990.36 6923 2994.5L6923 3024.5C6923 3028.64 6919.64 3032 6915.5 3032L6844.5 3032C6840.36 3032 6837 3028.64 6837 3024.5Z" fill="#A5A5A5" fill-rule="evenodd"/><path d="M6533 2991.33C6533 2987.28 6536.28 2984 6540.33 2984L6611.67 2984C6615.72 2984 6619 2987.28 6619 2991.33L6619 3020.67C6619 3024.72 6615.72 3028 6611.67 3028L6540.33 3028C6536.28 3028 6533 3024.72 6533 3020.67Z" fill="#A5A5A5" fill-rule="evenodd"/><path d="M5791 3312.5C5791 3291.79 5809.58 3275 5832.5 3275 5855.42 3275 5874 3291.79 5874 3312.5 5874 3333.21 5855.42 3350 5832.5 3350 5809.58 3350 5791 3333.21 5791 3312.5Z" fill="#FFC000" fill-rule="evenodd"/><text fill="#FFFFFF" font-family="Calibri,Calibri_MSFontService,sans-serif" font-weight="700" font-size="55" transform="matrix(1 0 0 1 5818.48 3330)">4<tspan fill="#000000" font-size="46" x="721.012" y="-577">HGT pool</tspan></text><path d="M6751 2994.5C6751 2990.36 6754.36 2987 6758.5 2987L6829.5 2987C6833.64 2987 6837 2990.36 6837 2994.5L6837 3024.5C6837 3028.64 6833.64 3032 6829.5 3032L6758.5 3032C6754.36 3032 6751 3028.64 6751 3024.5Z" fill="#C00000" fill-rule="evenodd"/><path d="M6542 2789.5C6542 2785.36 6545.36 2782 6549.5 2782L6620.5 2782C6624.64 2782 6628 2785.36 6628 2789.5L6628 2819.5C6628 2823.64 6624.64 2827 6620.5 2827L6549.5 2827C6545.36 2827 6542 2823.64 6542 2819.5Z" fill="#5B9BD5" fill-rule="evenodd"/><path d="M6640 2789.5C6640 2785.36 6643.36 2782 6647.5 2782L6718.5 2782C6722.64 2782 6726 2785.36 6726 2789.5L6726 2819.5C6726 2823.64 6722.64 2827 6718.5 2827L6647.5 2827C6643.36 2827 6640 2823.64 6640 2819.5Z" fill="#7030A0" fill-rule="evenodd"/><path d="M6740 2788.5C6740 2784.36 6743.36 2781 6747.5 2781L6818.5 2781C6822.64 2781 6826 2784.36 6826 2788.5L6826 2818.5C6826 2822.64 6822.64 2826 6818.5 2826L6747.5 2826C6743.36 2826 6740 2822.64 6740 2818.5Z" fill="#70AD47" fill-rule="evenodd"/><path d="M6482.5 2733.67C6482.5 2720.32 6493.32 2709.5 6506.67 2709.5L6991.33 2709.5C7004.68 2709.5 7015.5 2720.32 7015.5 2733.67L7015.5 2830.33C7015.5 2843.68 7004.68 2854.5 6991.33 2854.5L6506.67 2854.5C6493.32 2854.5 6482.5 2843.68 6482.5 2830.33Z" stroke="#A5A5A5" stroke-width="3.4375" stroke-linejoin="round" stroke-miterlimit="10" fill="none" fill-rule="evenodd"/><path d="M5109.5 3771.5 5898.5 3771.5 5898.5 3881.5C5898.5 3893.65 5888.65 3903.5 5876.5 3903.5L5087.5 3903.5 5087.5 3793.5C5087.5 3781.35 5097.35 3771.5 5109.5 3771.5Z" stroke="#FFFFFF" stroke-width="6.875" stroke-miterlimit="8" fill="#5B9BD5" fill-rule="evenodd"/><text fill="#FFFFFF" font-family="Calibri,Calibri_MSFontService,sans-serif" font-weight="700" font-size="46" transform="matrix(1 0 0 1 5226.34 3825)">Add the new genome to the <tspan font-size="46" x="-73.0357" y="55">population and record parenthoods</tspan></text><path d="M5470.5 3688 5470.5 3728 5492 3728 5449 3768 5406 3728 5427.5 3728 5427.5 3688Z" stroke="#A5A5A5" stroke-width="2.29167" stroke-miterlimit="8" fill="url(#fill3)" fill-rule="evenodd"/><path d="M5849 3774.5C5849 3753.79 5867.58 3737 5890.5 3737 5913.42 3737 5932 3753.79 5932 3774.5 5932 3795.21 5913.42 3812 5890.5 3812 5867.58 3812 5849 3795.21 5849 3774.5Z" fill="#FFC000" fill-rule="evenodd"/><text fill="#FFFFFF" font-family="Calibri,Calibri_MSFontService,sans-serif" font-weight="700" font-size="55" transform="matrix(1 0 0 1 5876.49 3793)">5</text><path d="M5105.5 4086.5 5494 3993.5 5882.5 4086.5 5494 4179.5Z" stroke="#FFFFFF" stroke-width="6.875" stroke-miterlimit="8" fill="#70AD47" fill-rule="evenodd"/><text fill="#FFFFFF" font-family="Calibri,Calibri_MSFontService,sans-serif" font-weight="700" font-size="46" transform="matrix(1 0 0 1 5371.05 4074)">Until desired <tspan font-size="46" x="-22.9165" y="55">population size</tspan></text><path d="M0-1.14583 46.427-1.14583 46.427 0.896096 45.2812-0.249738 67.6457-0.249738 67.6457 2.04193 44.1353 2.04193 44.1353 0 45.2812 1.14583 0 1.14583ZM63.0623-12.8539 90.5623 0.896096 63.0623 14.6461Z" fill="#A5A5A5" transform="matrix(1.83697e-16 1 1 -1.83697e-16 5492 3903)"/><path d="M5104.14 4086.92 4899.52 4086.92 4899.52 236.854 5061.08 236.854 5061.08 239.146 4900.67 239.146 4901.81 238 4901.81 4085.77 4900.67 4084.62 5104.14 4084.62ZM5056.5 224.25 5084 238 5056.5 251.75Z" fill="#A5A5A5"/><path d="M6404 3432.67C6404 3366.03 6458.03 3312 6524.67 3312L7185.33 3312C7251.97 3312 7306 3366.03 7306 3432.67L7306 3915.33C7306 3981.97 7251.97 4036 7185.33 4036L6524.67 4036C6458.03 4036 6404 3981.97 6404 3915.33Z" fill="#FFC000" fill-rule="evenodd" fill-opacity="0.501961"/><text font-family="Calibri,Calibri_MSFontService,sans-serif" font-weight="700" font-size="46" transform="matrix(1 0 0 1 6730.57 3581)">Root genome<tspan font-size="46" x="-174.743" y="-132">Synthetic population</tspan></text><path d="M6715.5 3629.5C6715.5 3627.29 6717.29 3625.5 6719.5 3625.5L7031.5 3625.5C7033.71 3625.5 7035.5 3627.29 7035.5 3629.5L7035.5 3645.5C7035.5 3647.71 7033.71 3649.5 7031.5 3649.5L6719.5 3649.5C6717.29 3649.5 6715.5 3647.71 6715.5 3645.5Z" stroke="#A5A5A5" stroke-width="3.4375" stroke-linejoin="round" stroke-miterlimit="10" fill="#EDEDED" fill-rule="evenodd"/><path d="M6748 3617.33C6748 3613.28 6751.28 3610 6755.33 3610L6826.67 3610C6830.72 3610 6834 3613.28 6834 3617.33L6834 3646.67C6834 3650.72 6830.72 3654 6826.67 3654L6755.33 3654C6751.28 3654 6748 3650.72 6748 3646.67Z" fill="#4472C4" fill-rule="evenodd"/><path d="M6799 3633.5C6799 3629.36 6802.36 3626 6806.5 3626L6877.5 3626C6881.64 3626 6885 3629.36 6885 3633.5L6885 3663.5C6885 3667.64 6881.64 3671 6877.5 3671L6806.5 3671C6802.36 3671 6799 3667.64 6799 3663.5Z" fill="#ED7D31" fill-rule="evenodd"/><path d="M6905 3622.5C6905 3618.36 6908.36 3615 6912.5 3615L6983.5 3615C6987.64 3615 6991 3618.36 6991 3622.5L6991 3652.5C6991 3656.64 6987.64 3660 6983.5 3660L6912.5 3660C6908.36 3660 6905 3656.64 6905 3652.5Z" fill="#A5A5A5" fill-rule="evenodd"/><path d="M6375 3335C6375 3314.01 6393.58 3297 6416.5 3297 6439.42 3297 6458 3314.01 6458 3335 6458 3355.99 6439.42 3373 6416.5 3373 6393.58 3373 6375 3355.99 6375 3335Z" fill="#FFC000" fill-rule="evenodd"/><text fill="#FFFFFF" font-family="Calibri,Calibri_MSFontService,sans-serif" font-weight="700" font-size="55" transform="matrix(1 0 0 1 6402.77 3353)">5<tspan fill="#000000" font-size="46" x="317.399" y="460">Selected genome</tspan></text><path d="M6712.5 3851C6712.5 3848.51 6714.51 3846.5 6717 3846.5L7161 3846.5C7163.49 3846.5 7165.5 3848.51 7165.5 3851L7165.5 3869C7165.5 3871.48 7163.49 3873.5 7161 3873.5L6717 3873.5C6714.51 3873.5 6712.5 3871.48 6712.5 3869Z" stroke="#A5A5A5" stroke-width="3.4375" stroke-linejoin="round" stroke-miterlimit="10" fill="#EDEDED" fill-rule="evenodd"/><path d="M6849 3855.33C6849 3851.28 6852.28 3848 6856.33 3848L6927.67 3848C6931.72 3848 6935 3851.28 6935 3855.33L6935 3884.67C6935 3888.72 6931.72 3892 6927.67 3892L6856.33 3892C6852.28 3892 6849 3888.72 6849 3884.67Z" fill="#ED7D31" fill-rule="evenodd"/><path d="M7044 3844.5C7044 3840.36 7047.36 3837 7051.5 3837L7122.5 3837C7126.64 3837 7130 3840.36 7130 3844.5L7130 3874.5C7130 3878.64 7126.64 3882 7122.5 3882L7051.5 3882C7047.36 3882 7044 3878.64 7044 3874.5Z" fill="#A5A5A5" fill-rule="evenodd"/><path d="M6740 3841.33C6740 3837.28 6743.28 3834 6747.33 3834L6818.67 3834C6822.72 3834 6826 3837.28 6826 3841.33L6826 3870.67C6826 3874.72 6822.72 3878 6818.67 3878L6747.33 3878C6743.28 3878 6740 3874.72 6740 3870.67Z" fill="#A5A5A5" fill-rule="evenodd"/><path d="M6957 3844.5C6957 3840.36 6960.36 3837 6964.5 3837L7035.5 3837C7039.64 3837 7043 3840.36 7043 3844.5L7043 3874.5C7043 3878.64 7039.64 3882 7035.5 3882L6964.5 3882C6960.36 3882 6957 3878.64 6957 3874.5Z" fill="#C00000" fill-rule="evenodd"/><path d="M0-1.14583 9.16667-1.14583 9.16667 1.14583 0 1.14583ZM16.0417-1.14583 25.2083-1.14583 25.2083 1.14583 16.0417 1.14583ZM32.0833-1.14583 41.25-1.14583 41.25 1.14583 32.0833 1.14583ZM48.125-1.14583 55.992-1.14583 55.992 2.4455 53.7003 2.4455 53.7003 0 54.8462 1.14583 48.125 1.14583ZM55.992 9.3205 55.992 18.4872 53.7003 18.4872 53.7003 9.3205ZM55.992 25.3622 55.992 34.5288 53.7003 34.5288 53.7003 25.3622ZM55.992 41.4038 55.992 50.5705 53.7003 50.5705 53.7003 41.4038ZM55.992 57.4455 55.992 66.6122 53.7003 66.6122 53.7003 57.4455ZM55.992 73.4872 55.992 82.6538 53.7003 82.6538 53.7003 73.4872ZM55.992 89.5288 55.992 98.6955 53.7003 98.6955 53.7003 89.5288ZM55.992 105.57 55.992 114.737 53.7003 114.737 53.7003 105.57ZM55.992 121.612 55.992 130.779 53.7003 130.779 53.7003 121.612ZM55.992 137.654 55.992 146.82 53.7003 146.82 53.7003 137.654ZM55.992 153.695 55.992 162.862 53.7003 162.862 53.7003 153.695ZM55.992 169.737 55.992 178.904 53.7003 178.904 53.7003 169.737ZM55.992 185.779 55.992 194.945 53.7003 194.945 53.7003 185.779ZM55.992 201.82 55.992 210.987 53.7003 210.987 53.7003 201.82ZM55.992 217.862 55.992 227.029 53.7003 227.029 53.7003 217.862ZM55.992 233.904 55.992 243.07 53.7003 243.07 53.7003 233.904ZM55.992 249.945 55.992 259.112 53.7003 259.112 53.7003 249.945ZM55.992 265.987 55.992 275.154 53.7003 275.154 53.7003 265.987ZM55.992 282.029 55.992 291.195 53.7003 291.195 53.7003 282.029ZM55.992 298.07 55.992 305.224 51.6868 305.224 51.6868 302.932 54.8462 302.932 53.7003 304.078 53.7003 298.07ZM44.8118 305.224 35.6452 305.224 35.6452 302.932 44.8118 302.932ZM28.7702 305.224 26.2004 305.224 26.2004 302.932 28.7702 302.932ZM30.7838 317.828 3.28376 304.078 30.7838 290.328Z" fill="#A5A5A5" transform="matrix(1.83697e-16 1 1 -1.83697e-16 6783 3878)"/><path d="M7085.55 3838.48 7079.91 3831.24 7081.72 3829.84 7087.35 3837.07ZM7075.69 3825.82 7070.06 3818.59 7071.87 3817.18 7077.5 3824.41ZM7065.83 3813.16 7060.2 3805.93 7062.01 3804.52 7067.64 3811.76ZM7055.98 3800.51 7050.34 3793.28 7052.15 3791.87 7057.78 3799.1ZM7046.12 3787.85 7040.49 3780.62 7042.3 3779.21 7047.93 3786.44ZM7036.26 3775.2 7030.63 3767.96 7032.44 3766.55 7038.07 3773.79ZM7026.41 3762.54 7020.77 3755.31 7022.58 3753.9 7028.21 3761.13ZM7016.55 3749.88 7010.92 3742.65 7012.73 3741.24 7018.36 3748.47ZM7006.69 3737.23 7001.06 3729.99 7002.87 3728.59 7008.5 3735.82ZM6996.84 3724.57 6991.2 3717.34 6993.01 3715.93 6998.64 3723.16ZM6986.98 3711.91 6981.35 3704.68 6983.15 3703.27 6988.79 3710.51ZM6977.12 3699.26 6971.49 3692.03 6973.3 3690.62 6978.93 3697.85ZM6967.27 3686.6 6961.63 3679.37 6963.44 3677.96 6969.07 3685.19ZM6954.05 3690.14 6948 3660 6975.75 3673.25Z" fill="#A5A5A5"/><path d="M6890.82 3848.35 6888.33 3839.53 6890.53 3838.91 6893.02 3847.73ZM6886.46 3832.91 6883.97 3824.09 6886.18 3823.47 6888.67 3832.29ZM6882.11 3817.47 6879.62 3808.65 6881.83 3808.03 6884.31 3816.85ZM6877.76 3802.03 6875.27 3793.21 6877.47 3792.59 6879.96 3801.41ZM6873.4 3786.59 6870.91 3777.77 6873.12 3777.15 6875.61 3785.97ZM6869.05 3771.15 6866.56 3762.33 6868.77 3761.71 6871.25 3770.53ZM6864.7 3755.71 6862.21 3746.89 6864.41 3746.27 6866.9 3755.09ZM6860.34 3740.27 6857.85 3731.45 6860.06 3730.83 6862.55 3739.65ZM6855.99 3724.83 6853.5 3716.01 6855.71 3715.39 6858.19 3724.21ZM6851.63 3709.39 6849.15 3700.57 6851.35 3699.95 6853.84 3708.77ZM6847.28 3693.95 6847.12 3693.37 6849.32 3692.75 6849.49 3693.33ZM6836.23 3701.2 6842 3671 6862.7 3693.74Z" fill="#A5A5A5"/><path d="M0 1.14583-82.5001 1.14583-81.3543 0-81.3543 222.929-82.5001 221.784-20.6734 221.784-20.6734 224.075-83.6459 224.075-83.6459-1.14583 0-1.14583ZM-25.2567 209.179 2.24331 222.929-25.2567 236.679Z" fill="#A5A5A5" transform="matrix(1 -1.22465e-16 -1.22465e-16 -1 6712 3859.93)"/><text fill="#767171" font-family="Calibri,Calibri_MSFontService,sans-serif" font-weight="700" font-size="46" transform="matrix(1 0 0 1 6503.7 3720)">parent<tspan font-size="46" x="0" y="55">genome</tspan><tspan font-size="46" x="495.203" y="34">parent gene</tspan></text><path d="M7261.5 3423.61C7261.5 3456.8 7077.27 3483.71 6850 3483.71 6622.73 3483.71 6438.5 3456.8 6438.5 3423.61 6438.5 3390.41 6622.73 3363.5 6850 3363.5 7077.27 3363.5 7261.5 3390.41 7261.5 3423.61L7261.5 3909.39C7261.5 3942.59 7077.27 3969.5 6850 3969.5 6622.73 3969.5 6438.5 3942.59 6438.5 3909.39L6438.5 3423.61" stroke="#A5A5A5" stroke-width="3.4375" stroke-linejoin="round" stroke-miterlimit="10" fill="none" fill-rule="evenodd"/><text fill="#767171" font-family="Calibri,Calibri_MSFontService,sans-serif" font-weight="700" font-size="46" transform="matrix(1 0 0 1 5388.1 720)">No<tspan font-size="46" x="299.104" y="-150">Yes</tspan><tspan font-size="46" x="-164.841" y="703">No</tspan><tspan font-size="46" x="412.459" y="699">Yes</tspan><tspan font-size="46" x="-250.51" y="1353">No</tspan><tspan font-size="46" x="349.871" y="1359">Yes</tspan><tspan font-size="46" x="-261.392" y="1836">No</tspan><tspan font-size="46" x="336.418" y="1836">Yes</tspan><tspan font-size="46" x="20.8599" y="2060">Yes</tspan><tspan font-size="46" x="649.132" y="2060">No</tspan></text></g></svg>