<svg width="1346" height="2167" xmlns="http://www.w3.org/2000/svg" xmlns:xlink="http://www.w3.org/1999/xlink" overflow="hidden"><defs><clipPath id="clip0"><rect x="141" y="132" width="1346" height="2167"/></clipPath><linearGradient x1="1248" y1="952" x2="1187" y2="952" gradientUnits="userSpaceOnUse" spreadMethod="reflect" id="fill1"><stop offset="0" stop-color="#AFAFAF"/><stop offset="0.5" stop-color="#A5A5A5"/><stop offset="1" stop-color="#929292"/></linearGradient><linearGradient x1="1253" y1="1200" x2="1193" y2="1200" gradientUnits="userSpaceOnUse" spreadMethod="reflect" id="fill2"><stop offset="0" stop-color="#AFAFAF"/><stop offset="0.5" stop-color="#A5A5A5"/><stop offset="1" stop-color="#929292"/></linearGradient><linearGradient x1="955" y1="1835" x2="894" y2="1835" gradientUnits="userSpaceOnUse" spreadMethod="reflect" id="fill3"><stop offset="0" stop-color="#AFAFAF"/><stop offset="0.5" stop-color="#A5A5A5"/><stop offset="1" stop-color="#929292"/></linearGradient><linearGradient x1="1035" y1="1798" x2="974" y2="1798" gradientUnits="userSpaceOnUse" spreadMethod="reflect" id="fill4"><stop offset="0" stop-color="#AFAFAF"/><stop offset="0.5" stop-color="#A5A5A5"/><stop offset="1" stop-color="#929292"/></linearGradient><linearGradient x1="660" y1="1825" x2="599" y2="1825" gradientUnits="userSpaceOnUse" spreadMethod="reflect" id="fill5"><stop offset="0" stop-color="#AFAFAF"/><stop offset="0.5" stop-color="#A5A5A5"/><stop offset="1" stop-color="#929292"/></linearGradient><linearGradient x1="640" y1="1197" x2="579" y2="1197" gradientUnits="userSpaceOnUse" spreadMethod="reflect" id="fill6"><stop offset="0" stop-color="#AFAFAF"/><stop offset="0.5" stop-color="#A5A5A5"/><stop offset="1" stop-color="#929292"/></linearGradient><linearGradient x1="940" y1="913.5" x2="879" y2="913.5" gradientUnits="userSpaceOnUse" spreadMethod="reflect" id="fill7"><stop offset="0" stop-color="#AFAFAF"/><stop offset="0.5" stop-color="#A5A5A5"/><stop offset="1" stop-color="#929292"/></linearGradient><linearGradient x1="584" y1="526" x2="584" y2="582" gradientUnits="userSpaceOnUse" spreadMethod="reflect" id="fill8"><stop offset="0" stop-color="#AFAFAF"/><stop offset="0.5" stop-color="#A5A5A5"/><stop offset="1" stop-color="#929292"/></linearGradient><linearGradient x1="715" y1="834" x2="715" y2="773" gradientUnits="userSpaceOnUse" spreadMethod="reflect" id="fill9"><stop offset="0" stop-color="#AFAFAF"/><stop offset="0.5" stop-color="#A5A5A5"/><stop offset="1" stop-color="#929292"/></linearGradient><linearGradient x1="640" y1="915" x2="579" y2="915" gradientUnits="userSpaceOnUse" spreadMethod="reflect" id="fill10"><stop offset="0" stop-color="#AFAFAF"/><stop offset="0.5" stop-color="#A5A5A5"/><stop offset="1" stop-color="#929292"/></linearGradient><linearGradient x1="933" y1="1439" x2="873" y2="1439" gradientUnits="userSpaceOnUse" spreadMethod="reflect" id="fill11"><stop offset="0" stop-color="#AFAFAF"/><stop offset="0.5" stop-color="#A5A5A5"/><stop offset="1" stop-color="#929292"/></linearGradient><linearGradient x1="584" y1="318" x2="584" y2="374" gradientUnits="userSpaceOnUse" spreadMethod="reflect" id="fill12"><stop offset="0" stop-color="#AFAFAF"/><stop offset="0.5" stop-color="#A5A5A5"/><stop offset="1" stop-color="#929292"/></linearGradient><linearGradient x1="646" y1="2059" x2="585" y2="2059" gradientUnits="userSpaceOnUse" spreadMethod="reflect" id="fill13"><stop offset="0" stop-color="#AFAFAF"/><stop offset="0.5" stop-color="#A5A5A5"/><stop offset="1" stop-color="#929292"/></linearGradient><linearGradient x1="1041" y1="2095.5" x2="980" y2="2095.5" gradientUnits="userSpaceOnUse" spreadMethod="reflect" id="fill14"><stop offset="0" stop-color="#AFAFAF"/><stop offset="0.5" stop-color="#A5A5A5"/><stop offset="1" stop-color="#929292"/></linearGradient><linearGradient x1="1257" y1="725" x2="1196" y2="725" gradientUnits="userSpaceOnUse" spreadMethod="reflect" id="fill15"><stop offset="0" stop-color="#AFAFAF"/><stop offset="0.5" stop-color="#A5A5A5"/><stop offset="1" stop-color="#929292"/></linearGradient><linearGradient x1="1047" y1="788.5" x2="986" y2="788.5" gradientUnits="userSpaceOnUse" spreadMethod="reflect" id="fill16"><stop offset="0" stop-color="#AFAFAF"/><stop offset="0.5" stop-color="#A5A5A5"/><stop offset="1" stop-color="#929292"/></linearGradient></defs><g clip-path="url(#clip0)" transform="translate(-141 -132)"><path d="M1068 897.501C1068 868.505 1091.51 845 1120.5 845L1411.5 845C1440.49 845 1464 868.505 1464 897.501L1464 1107.5C1464 1136.49 1440.49 1160 1411.5 1160L1120.5 1160C1091.51 1160 1068 1136.49 1068 1107.5Z" fill="#FFC000" fill-rule="evenodd" fill-opacity="0.501961"/><path d="M155.5 1278C155.5 1224.15 199.153 1180.5 253.002 1180.5L1347 1180.5C1400.85 1180.5 1444.5 1224.15 1444.5 1278L1444.5 1668C1444.5 1721.85 1400.85 1765.5 1347 1765.5L253.002 1765.5C199.153 1765.5 155.5 1721.85 155.5 1668Z" stroke="#AFABAB" stroke-width="3.4375" stroke-linejoin="round" stroke-miterlimit="10" fill="#FFC000" fill-rule="evenodd" fill-opacity="0.501961"/><path d="M213.5 1892.5C213.5 1847.77 249.766 1811.5 294.501 1811.5L677.499 1811.5C722.235 1811.5 758.5 1847.77 758.5 1892.5L758.5 2216.5C758.5 2261.23 722.235 2297.5 677.499 2297.5L294.501 2297.5C249.766 2297.5 213.5 2261.23 213.5 2216.5Z" stroke="#AFABAB" stroke-width="3.4375" stroke-linejoin="round" stroke-miterlimit="10" fill="#FFC000" fill-rule="evenodd" fill-opacity="0.501961"/><path d="M784.5 1894.17C784.5 1849.62 820.616 1813.5 865.168 1813.5L1223.83 1813.5C1268.38 1813.5 1304.5 1849.62 1304.5 1894.17L1304.5 2216.83C1304.5 2261.38 1268.38 2297.5 1223.83 2297.5L865.168 2297.5C820.616 2297.5 784.5 2261.38 784.5 2216.83Z" stroke="#AFABAB" stroke-width="3.4375" stroke-linejoin="round" stroke-miterlimit="10" fill="#FFC000" fill-rule="evenodd" fill-opacity="0.501961"/><path d="M1232.75 872 1232.75 1001.5 1248 1001.5 1217.5 1032 1187 1001.5 1202.25 1001.5 1202.25 872Z" stroke="#A5A5A5" stroke-width="2.29167" stroke-miterlimit="8" fill="url(#fill1)" fill-rule="evenodd"/><path d="M1238 1127 1238 1243 1253 1243 1223 1273 1193 1243 1208 1243 1208 1127Z" stroke="#A5A5A5" stroke-width="2.29167" stroke-miterlimit="8" fill="url(#fill2)" fill-rule="evenodd"/><path d="M939.75 1739 939.75 1900.5 955 1900.5 924.5 1931 894 1900.5 909.25 1900.5 909.25 1739Z" stroke="#A5A5A5" stroke-width="2.29167" stroke-miterlimit="8" fill="url(#fill3)" fill-rule="evenodd"/><path d="M1019.75 1665 1019.75 1900.5 1035 1900.5 1004.5 1931 974 1900.5 989.25 1900.5 989.25 1665Z" stroke="#A5A5A5" stroke-width="2.29167" stroke-miterlimit="8" fill="url(#fill4)" fill-rule="evenodd"/><path d="M644.75 1729 644.75 1890.5 660 1890.5 629.5 1921 599 1890.5 614.25 1890.5 614.25 1729Z" stroke="#A5A5A5" stroke-width="2.29167" stroke-miterlimit="8" fill="url(#fill5)" fill-rule="evenodd"/><path d="M624.75 1121 624.75 1242.5 640 1242.5 609.5 1273 579 1242.5 594.25 1242.5 594.25 1121Z" stroke="#A5A5A5" stroke-width="2.29167" stroke-miterlimit="8" fill="url(#fill6)" fill-rule="evenodd"/><path d="M924.75 554 924.75 1242.5 940 1242.5 909.5 1273 879 1242.5 894.25 1242.5 894.25 554Z" stroke="#A5A5A5" stroke-width="2.29167" stroke-miterlimit="8" fill="url(#fill7)" fill-rule="evenodd"/><path d="M209.501 440.5 313.5 440.5 338.5 465.5 338.5 590.5 184.5 590.5 184.5 465.5C184.5 451.693 195.693 440.5 209.501 440.5Z" stroke="#FFFFFF" stroke-width="6.875" stroke-miterlimit="8" fill="#FFC000" fill-rule="evenodd"/><text font-family="Calibri,Calibri_MSFontService,sans-serif" font-weight="700" font-size="28" transform="matrix(1 0 0 1 230.758 529)">.GBK</text><path d="M233.501 460.5 337.5 460.5 362.5 485.501 362.5 610.5 208.5 610.5 208.5 485.501C208.5 471.693 219.693 460.5 233.501 460.5Z" stroke="#FFFFFF" stroke-width="6.875" stroke-miterlimit="8" fill="#FFC000" fill-rule="evenodd"/><text font-family="Calibri,Calibri_MSFontService,sans-serif" font-weight="700" font-size="28" transform="matrix(1 0 0 1 254.993 548)">.GBK</text><path d="M265.501 479.5 369.5 479.5 394.5 504.501 394.5 629.5 240.5 629.5 240.5 504.501C240.5 490.693 251.693 479.5 265.501 479.5Z" stroke="#FFFFFF" stroke-width="6.875" stroke-miterlimit="8" fill="#FFC000" fill-rule="evenodd"/><text font-family="Calibri,Calibri_MSFontService,sans-serif" font-weight="700" font-size="28" transform="matrix(1 0 0 1 281.264 567)">.GBFF</text><path d="M803.501 365.5 907.5 365.5 932.5 390.501 932.5 515.5 778.5 515.5 778.5 390.501C778.5 376.693 789.693 365.5 803.501 365.5Z" stroke="#FFFFFF" stroke-width="6.875" stroke-miterlimit="8" fill="#FFC000" fill-rule="evenodd"/><text font-family="Calibri,Calibri_MSFontService,sans-serif" font-weight="700" font-size="28" transform="matrix(1 0 0 1 824.509 453)">.GBK</text><path d="M827.501 385.5 931.5 385.5 956.5 410.5 956.5 535.5 802.5 535.5 802.5 410.5C802.5 396.693 813.693 385.5 827.501 385.5Z" stroke="#FFFFFF" stroke-width="6.875" stroke-miterlimit="8" fill="#FFC000" fill-rule="evenodd"/><text font-family="Calibri,Calibri_MSFontService,sans-serif" font-weight="700" font-size="28" transform="matrix(1 0 0 1 848.744 473)">.GBK</text><path d="M859.501 404.5 962.5 404.5 987.5 429.501 987.5 554.5 834.5 554.5 834.5 429.501C834.5 415.693 845.693 404.5 859.501 404.5Z" stroke="#FFFFFF" stroke-width="6.875" stroke-miterlimit="8" fill="#FFC000" fill-rule="evenodd"/><text font-family="Calibri,Calibri_MSFontService,sans-serif" font-weight="700" font-size="28" transform="matrix(1 0 0 1 881.316 492)">.PEG</text><path d="M406 540 734 540 734 526 762 554 734 582 734 568 406 568Z" stroke="#A5A5A5" stroke-width="2.29167" stroke-miterlimit="8" fill="url(#fill8)" fill-rule="evenodd"/><path d="M463.5 503.5 696.5 503.5 696.5 589.308C580 589.308 580 622.003 463.5 603.426Z" stroke="#FFFFFF" stroke-width="6.875" stroke-miterlimit="8" fill="#5B9BD5" fill-rule="evenodd"/><text fill="#FFFFFF" font-family="Calibri,Calibri_MSFontService,sans-serif" font-weight="700" font-size="28" transform="matrix(1 0 0 1 520.2 555)">gb2peg.py<tspan fill="#000000" font-family="Arial,Arial_MSFontService,sans-serif" font-weight="400" font-size="37" x="-279.972" y="-370">Conversion to the internal </tspan><tspan fill="#000000" font-family="Arial,Arial_MSFontService,sans-serif" font-weight="400" font-size="37" x="-279.972" y="-326">genomic format</tspan></text><path d="M142.5 225.002C142.5 178.333 180.333 140.5 227.002 140.5L634.998 140.5C681.667 140.5 719.5 178.333 719.5 225.002L719.5 562.998C719.5 609.667 681.667 647.5 634.998 647.5L227.002 647.5C180.333 647.5 142.5 609.667 142.5 562.998Z" stroke="#A5A5A5" stroke-width="3.4375" stroke-linejoin="round" stroke-miterlimit="10" fill="none" fill-rule="evenodd"/><path d="M155.5 764.502C155.5 721.422 190.422 686.5 233.502 686.5L654.498 686.5C697.578 686.5 732.5 721.422 732.5 764.502L732.5 1076.5C732.5 1119.58 697.578 1154.5 654.498 1154.5L233.502 1154.5C190.422 1154.5 155.5 1119.58 155.5 1076.5Z" stroke="#A5A5A5" stroke-width="3.4375" stroke-linejoin="round" stroke-miterlimit="10" fill="none" fill-rule="evenodd"/><text font-family="Arial,Arial_MSFontService,sans-serif" font-weight="400" font-size="37" transform="matrix(1 0 0 1 230.669 727)">Extraction of HGT pool</text><path d="M784.167 732.5 870.833 732.5 892.5 754.167 892.5 882.5 762.5 882.5 762.5 754.167C762.5 742.201 772.201 732.5 784.167 732.5Z" stroke="#FFFFFF" stroke-width="6.875" stroke-miterlimit="8" fill="#FFC000" fill-rule="evenodd"/><text font-family="Calibri,Calibri_MSFontService,sans-serif" font-weight="700" font-size="28" transform="matrix(1 0 0 1 807.857 820)">list</text><path d="M389.5 770.5 672.5 770.5 672.5 855.506C531 855.506 531 887.895 389.5 869.492Z" stroke="#FFFFFF" stroke-width="6.875" stroke-miterlimit="8" fill="#5B9BD5" fill-rule="evenodd"/><text fill="#FFFFFF" font-family="Calibri,Calibri_MSFontService,sans-serif" font-weight="700" font-size="28" transform="matrix(1 0 0 1 435.809 822)">create_hgt_pool</text><path d="M758 818.75 702.5 818.75 702.5 834 672 803.5 702.5 773 702.5 788.25 758 788.25Z" stroke="#A5A5A5" stroke-width="2.29167" stroke-miterlimit="8" fill="url(#fill9)" fill-rule="evenodd"/><path d="M548.334 967.5 647.666 967.5 672.5 992.334 672.5 1117.5 523.5 1117.5 523.5 992.334C523.5 978.619 534.619 967.5 548.334 967.5Z" stroke="#FFFFFF" stroke-width="6.875" stroke-miterlimit="8" fill="#FFC000" fill-rule="evenodd"/><text font-family="Calibri,Calibri_MSFontService,sans-serif" font-weight="700" font-size="28" transform="matrix(1 0 0 1 570.254 1038)">HGT <tspan font-size="28" x="-1.44373" y="33">pool</tspan></text><path d="M624.75 872 624.75 927.5 640 927.5 609.5 958 579 927.5 594.25 927.5 594.25 872Z" stroke="#A5A5A5" stroke-width="2.29167" stroke-miterlimit="8" fill="url(#fill10)" fill-rule="evenodd"/><path d="M395.5 1279.5 1411.5 1279.5 1411.5 1364.51C903.5 1364.51 903.5 1396.9 395.5 1378.49Z" stroke="#FFFFFF" stroke-width="6.875" stroke-miterlimit="8" fill="#5B9BD5" fill-rule="evenodd"/><text fill="#FFFFFF" font-family="Calibri,Calibri_MSFontService,sans-serif" font-weight="700" font-size="28" transform="matrix(1 0 0 1 865.189 1331)">evolve<tspan fill="#000000" font-family="Arial,Arial_MSFontService,sans-serif" font-weight="400" font-size="37" x="-641.79" y="-98">Creation of the synthetic population</tspan></text><path d="M697.333 1590.5 1049.67 1590.5 1061.5 1602.33 1061.5 1661.5 685.5 1661.5 685.5 1602.33C685.5 1595.8 690.798 1590.5 697.333 1590.5Z" stroke="#FFFFFF" stroke-width="6.875" stroke-miterlimit="8" fill="#FFC000" fill-rule="evenodd"/><text font-family="Calibri,Calibri_MSFontService,sans-serif" font-weight="700" font-size="28" transform="matrix(1 0 0 1 755.369 1637)">.<tspan font-size="28" x="7.44794" y="0">genome_sequences</tspan></text><path d="M1091.17 1038.5 1370.83 1038.5 1383.5 1051.17 1383.5 1114.5 1078.5 1114.5 1078.5 1051.17C1078.5 1044.17 1084.17 1038.5 1091.17 1038.5Z" stroke="#FFFFFF" stroke-width="6.875" stroke-miterlimit="8" fill="#FFC000" fill-rule="evenodd"/><text font-family="Calibri,Calibri_MSFontService,sans-serif" font-weight="700" font-size="28" transform="matrix(1 0 0 1 1128.35 1087)">.<tspan font-size="28" x="7.44788" y="0">genome_parents</tspan></text><path d="M604.167 1665.5 956.833 1665.5 968.5 1677.17 968.5 1735.5 592.5 1735.5 592.5 1677.17C592.5 1670.72 597.724 1665.5 604.167 1665.5Z" stroke="#FFFFFF" stroke-width="6.875" stroke-miterlimit="8" fill="#FFC000" fill-rule="evenodd"/><text font-family="Calibri,Calibri_MSFontService,sans-serif" font-weight="700" font-size="28" transform="matrix(1 0 0 1 741.855 1711)">.genes</text><path d="M652.167 1494.5 1004.83 1494.5 1016.5 1506.17 1016.5 1564.5 640.5 1564.5 640.5 1506.17C640.5 1499.72 645.723 1494.5 652.167 1494.5Z" stroke="#FFFFFF" stroke-width="6.875" stroke-miterlimit="8" fill="#FFC000" fill-rule="evenodd"/><text font-family="Calibri,Calibri_MSFontService,sans-serif" font-weight="700" font-size="28" transform="matrix(1 0 0 1 744.669 1540)">.<tspan font-size="28" x="7.44788" y="0">gene_parents</tspan></text><path d="M918 1396 918 1452 933 1452 903 1482 873 1452 888 1452 888 1396Z" stroke="#A5A5A5" stroke-width="2.29167" stroke-miterlimit="8" fill="url(#fill11)" fill-rule="evenodd"/><text font-family="Arial,Arial_MSFontService,sans-serif" font-weight="400" font-size="37" transform="matrix(1 0 0 1 255.426 1863)">Extraction of the <tspan font-size="37" x="0" y="44">pangenomic</tspan><tspan font-size="37" x="211.406" y="44">information</tspan></text><path d="M362.5 1929.5 676.5 1929.5 676.5 2015.31C519.5 2015.31 519.5 2048 362.5 2029.43Z" stroke="#FFFFFF" stroke-width="6.875" stroke-miterlimit="8" fill="#5B9BD5" fill-rule="evenodd"/><text fill="#FFFFFF" font-family="Calibri,Calibri_MSFontService,sans-serif" font-weight="700" font-size="28" transform="matrix(1 0 0 1 415.972 1981)">get_pan_distrs.py</text><path d="M209.501 232.5 313.5 232.5 338.5 257.5 338.5 382.5 184.5 382.5 184.5 257.5C184.5 243.693 195.693 232.5 209.501 232.5Z" stroke="#FFFFFF" stroke-width="6.875" stroke-miterlimit="8" fill="#FFC000" fill-rule="evenodd"/><text font-family="Calibri,Calibri_MSFontService,sans-serif" font-weight="700" font-size="28" transform="matrix(1 0 0 1 230.758 320)">.GBK</text><path d="M233.501 251.5 337.5 251.5 362.5 276.501 362.5 401.5 208.5 401.5 208.5 276.501C208.5 262.693 219.693 251.5 233.501 251.5Z" stroke="#FFFFFF" stroke-width="6.875" stroke-miterlimit="8" fill="#FFC000" fill-rule="evenodd"/><text font-family="Calibri,Calibri_MSFontService,sans-serif" font-weight="700" font-size="28" transform="matrix(1 0 0 1 254.993 339)">.GBK</text><path d="M265.501 271.5 369.5 271.5 394.5 296.501 394.5 421.5 240.5 421.5 240.5 296.501C240.5 282.693 251.693 271.5 265.501 271.5Z" stroke="#FFFFFF" stroke-width="6.875" stroke-miterlimit="8" fill="#FFC000" fill-rule="evenodd"/><text font-family="Calibri,Calibri_MSFontService,sans-serif" font-weight="700" font-size="28" transform="matrix(1 0 0 1 282.123 326)">.GFF+<tspan font-size="28" x="4.01041" y="33">FAST</tspan><tspan font-size="28" x="23.7646" y="66">A</tspan></text><path d="M406 332 734 332 734 318 762 346 734 374 734 360 406 360Z" stroke="#A5A5A5" stroke-width="2.29167" stroke-miterlimit="8" fill="url(#fill12)" fill-rule="evenodd"/><path d="M463.5 295.5 696.5 295.5 696.5 380.506C580 380.506 580 412.895 463.5 394.492Z" stroke="#FFFFFF" stroke-width="6.875" stroke-miterlimit="8" fill="#5B9BD5" fill-rule="evenodd"/><text fill="#FFFFFF" font-family="Calibri,Calibri_MSFontService,sans-serif" font-weight="700" font-size="28" transform="matrix(1 0 0 1 519.054 347)">gff2peg.py</text><path d="M630.75 2024 630.75 2063.5 646 2063.5 615.5 2094 585 2063.5 600.25 2063.5 600.25 2024Z" stroke="#A5A5A5" stroke-width="2.29167" stroke-miterlimit="8" fill="url(#fill13)" fill-rule="evenodd"/><text font-family="Arial,Arial_MSFontService,sans-serif" font-weight="400" font-size="37" transform="matrix(1 0 0 1 841.46 1883)">To  external output  formats</text><path d="M855.5 1936.5 1117.5 1936.5 1117.5 2021.51C986.5 2021.51 986.5 2053.9 855.5 2035.49Z" stroke="#FFFFFF" stroke-width="6.875" stroke-miterlimit="8" fill="#5B9BD5" fill-rule="evenodd"/><text fill="#FFFFFF" font-family="Calibri,Calibri_MSFontService,sans-serif" font-weight="700" font-size="28" transform="matrix(1 0 0 1 915.554 1988)">pegs2gxx.py</text><path d="M1025.75 2042 1025.75 2118.5 1041 2118.5 1010.5 2149 980 2118.5 995.25 2118.5 995.25 2042Z" stroke="#A5A5A5" stroke-width="2.29167" stroke-miterlimit="8" fill="url(#fill14)" fill-rule="evenodd"/><path d="M923.167 2178.5 1096.83 2178.5 1108.5 2190.17 1108.5 2248.5 911.5 2248.5 911.5 2190.17C911.5 2183.72 916.724 2178.5 923.167 2178.5Z" stroke="#FFFFFF" stroke-width="6.875" stroke-miterlimit="8" fill="#FFC000" fill-rule="evenodd"/><text font-family="Calibri,Calibri_MSFontService,sans-serif" font-weight="700" font-size="28" transform="matrix(1 0 0 1 982.706 2224)">.GFF</text><path d="M905.167 2197.5 1105.83 2197.5 1117.5 2209.17 1117.5 2267.5 893.5 2267.5 893.5 2209.17C893.5 2202.72 898.723 2197.5 905.167 2197.5Z" stroke="#FFFFFF" stroke-width="6.875" stroke-miterlimit="8" fill="#FFC000" fill-rule="evenodd"/><text font-family="Calibri,Calibri_MSFontService,sans-serif" font-weight="700" font-size="28" transform="matrix(1 0 0 1 935.01 2243)">.GFF+FASTA</text><path d="M1068.17 2120.5 1241.83 2120.5 1253.5 2132.17 1253.5 2190.5 1056.5 2190.5 1056.5 2132.17C1056.5 2125.72 1061.72 2120.5 1068.17 2120.5Z" stroke="#FFFFFF" stroke-width="6.875" stroke-miterlimit="8" fill="#FFC000" fill-rule="evenodd"/><text font-family="Calibri,Calibri_MSFontService,sans-serif" font-weight="700" font-size="28" transform="matrix(1 0 0 1 1127.86 2166)">.GFF</text><path d="M1050.33 2139.5 1223.67 2139.5 1235.5 2151.33 1235.5 2210.5 1038.5 2210.5 1038.5 2151.33C1038.5 2144.8 1043.8 2139.5 1050.33 2139.5Z" stroke="#FFFFFF" stroke-width="6.875" stroke-miterlimit="8" fill="#FFC000" fill-rule="evenodd"/><text font-family="Calibri,Calibri_MSFontService,sans-serif" font-weight="700" font-size="28" transform="matrix(1 0 0 1 1102.38 2186)">.GBFF</text><path d="M1159.5 845.5 1452.5 845.5 1452.5 931.308C1306 931.308 1306 964.003 1159.5 945.426Z" stroke="#FFFFFF" stroke-width="6.875" stroke-miterlimit="8" fill="#5B9BD5" fill-rule="evenodd"/><text fill="#FFFFFF" font-family="Calibri,Calibri_MSFontService,sans-serif" font-weight="700" font-size="28" transform="matrix(1 0 0 1 1206.04 898)">generate_tree.py</text><path d="M1086.5 766.5 1379.5 766.5 1379.5 852.308C1233 852.308 1233 885.002 1086.5 866.426Z" stroke="#FFFFFF" stroke-width="6.875" stroke-miterlimit="8" fill="#5B9BD5" fill-rule="evenodd"/><text fill="#FFFFFF" font-family="Calibri,Calibri_MSFontService,sans-serif" font-weight="700" font-size="28" transform="matrix(1 0 0 1 1131.16 818)">phyloxml2tree.py</text><path d="M1175.5 530.5 1279.5 530.5 1304.5 555.5 1304.5 680.5 1150.5 680.5 1150.5 555.5C1150.5 541.693 1161.69 530.5 1175.5 530.5Z" stroke="#FFFFFF" stroke-width="6.875" stroke-miterlimit="8" fill="#FFC000" fill-rule="evenodd"/><text font-family="Calibri,Calibri_MSFontService,sans-serif" font-weight="700" font-size="28" transform="matrix(1 0 0 1 1195.53 601)">.<tspan font-size="28" x="7.44788" y="0">Phyl</tspan><tspan font-size="28" x="-4.0105" y="33">oXML</tspan></text><path d="M1241.75 682 1241.75 737.5 1257 737.5 1226.5 768 1196 737.5 1211.25 737.5 1211.25 682Z" stroke="#A5A5A5" stroke-width="2.29167" stroke-miterlimit="8" fill="url(#fill15)" fill-rule="evenodd"/><path d="M1061.5 462.668C1061.5 425.572 1091.57 395.5 1128.67 395.5L1397.33 395.5C1434.43 395.5 1464.5 425.572 1464.5 462.668L1464.5 1093.33C1464.5 1130.43 1434.43 1160.5 1397.33 1160.5L1128.67 1160.5C1091.57 1160.5 1061.5 1130.43 1061.5 1093.33Z" stroke="#A5A5A5" stroke-width="3.4375" stroke-linejoin="round" stroke-miterlimit="10" fill="none" fill-rule="evenodd"/><text font-family="Arial,Arial_MSFontService,sans-serif" font-weight="400" font-size="37" transform="matrix(1 0 0 1 1101.29 453)">Phylogenomic tree<tspan font-size="37" x="0" y="44">conversion/generation</tspan></text><path d="M886.334 165.5 1146.67 165.5 1168.5 187.334 1168.5 296.5 864.5 296.5 864.5 187.334C864.5 175.275 874.275 165.5 886.334 165.5Z" stroke="#FFFFFF" stroke-width="6.875" stroke-miterlimit="8" fill="#FFC000" fill-rule="evenodd"/><text font-family="Calibri,Calibri_MSFontService,sans-serif" font-weight="700" font-size="28" transform="matrix(1 0 0 1 950.603 227)">Probability <tspan font-size="28" x="-46.9792" y="33">substitution matrix</tspan></text><path d="M1031.75 304 1031.75 1242.5 1047 1242.5 1016.5 1273 986 1242.5 1001.25 1242.5 1001.25 304Z" stroke="#A5A5A5" stroke-width="2.29167" stroke-miterlimit="8" fill="url(#fill16)" fill-rule="evenodd"/><path d="M442.167 2154.5 720.833 2154.5 732.5 2166.17 732.5 2224.5 430.5 2224.5 430.5 2166.17C430.5 2159.72 435.723 2154.5 442.167 2154.5Z" stroke="#FFFFFF" stroke-width="6.875" stroke-miterlimit="8" fill="#FFC000" fill-rule="evenodd"/><text font-family="Calibri,Calibri_MSFontService,sans-serif" font-weight="700" font-size="28" transform="matrix(1 0 0 1 481.766 2200)">.<tspan font-size="28" x="7.44791" y="0">family_presence</tspan></text><path d="M351.334 2098.5 592.667 2098.5 604.5 2110.33 604.5 2169.5 339.5 2169.5 339.5 2110.33C339.5 2103.8 344.798 2098.5 351.334 2098.5Z" stroke="#FFFFFF" stroke-width="6.875" stroke-miterlimit="8" fill="#FFC000" fill-rule="evenodd"/><text font-family="Calibri,Calibri_MSFontService,sans-serif" font-weight="700" font-size="28" transform="matrix(1 0 0 1 387.102 2145)">.<tspan font-size="28" x="7.44791" y="0">gene_families</tspan></text><path d="M339.334 2212.5 617.666 2212.5 629.5 2224.33 629.5 2283.5 327.5 2283.5 327.5 2224.33C327.5 2217.8 332.798 2212.5 339.334 2212.5Z" stroke="#FFFFFF" stroke-width="6.875" stroke-miterlimit="8" fill="#FFC000" fill-rule="evenodd"/><text font-family="Calibri,Calibri_MSFontService,sans-serif" font-weight="700" font-size="28" transform="matrix(1 0 0 1 376.588 2259)">.<tspan font-size="28" x="7.44794" y="0">pan_distribution</tspan></text></g></svg>