<svg width="1920" height="3076" xmlns="http://www.w3.org/2000/svg" xmlns:xlink="http://www.w3.org/1999/xlink" overflow="hidden"><defs><clipPath id="clip0"><rect x="3897" y="603" width="1920" height="3076"/></clipPath><linearGradient x1="5467" y1="1766.5" x2="5381" y2="1766.5" gradientUnits="userSpaceOnUse" spreadMethod="reflect" id="fill1"><stop offset="0" stop-color="#AFAFAF"/><stop offset="0.5" stop-color="#A5A5A5"/><stop offset="1" stop-color="#929292"/></linearGradient><linearGradient x1="5474" y1="2118" x2="5388" y2="2118" gradientUnits="userSpaceOnUse" spreadMethod="reflect" id="fill2"><stop offset="0" stop-color="#AFAFAF"/><stop offset="0.5" stop-color="#A5A5A5"/><stop offset="1" stop-color="#929292"/></linearGradient><linearGradient x1="5051" y1="3019" x2="4965" y2="3019" gradientUnits="userSpaceOnUse" spreadMethod="reflect" id="fill3"><stop offset="0" stop-color="#AFAFAF"/><stop offset="0.5" stop-color="#A5A5A5"/><stop offset="1" stop-color="#929292"/></linearGradient><linearGradient x1="5164" y1="2966" x2="5078" y2="2966" gradientUnits="userSpaceOnUse" spreadMethod="reflect" id="fill4"><stop offset="0" stop-color="#AFAFAF"/><stop offset="0.5" stop-color="#A5A5A5"/><stop offset="1" stop-color="#929292"/></linearGradient><linearGradient x1="4632" y1="3005" x2="4546" y2="3005" gradientUnits="userSpaceOnUse" spreadMethod="reflect" id="fill5"><stop offset="0" stop-color="#AFAFAF"/><stop offset="0.5" stop-color="#A5A5A5"/><stop offset="1" stop-color="#929292"/></linearGradient><linearGradient x1="4604" y1="2114" x2="4518" y2="2114" gradientUnits="userSpaceOnUse" spreadMethod="reflect" id="fill6"><stop offset="0" stop-color="#AFAFAF"/><stop offset="0.5" stop-color="#A5A5A5"/><stop offset="1" stop-color="#929292"/></linearGradient><linearGradient x1="5029" y1="1712" x2="4943" y2="1712" gradientUnits="userSpaceOnUse" spreadMethod="reflect" id="fill7"><stop offset="0" stop-color="#AFAFAF"/><stop offset="0.5" stop-color="#A5A5A5"/><stop offset="1" stop-color="#929292"/></linearGradient><linearGradient x1="4525" y1="1163" x2="4525" y2="1242" gradientUnits="userSpaceOnUse" spreadMethod="reflect" id="fill8"><stop offset="0" stop-color="#AFAFAF"/><stop offset="0.5" stop-color="#A5A5A5"/><stop offset="1" stop-color="#929292"/></linearGradient><linearGradient x1="4710" y1="1599" x2="4710" y2="1513" gradientUnits="userSpaceOnUse" spreadMethod="reflect" id="fill9"><stop offset="0" stop-color="#AFAFAF"/><stop offset="0.5" stop-color="#A5A5A5"/><stop offset="1" stop-color="#929292"/></linearGradient><linearGradient x1="4604" y1="1714" x2="4518" y2="1714" gradientUnits="userSpaceOnUse" spreadMethod="reflect" id="fill10"><stop offset="0" stop-color="#AFAFAF"/><stop offset="0.5" stop-color="#A5A5A5"/><stop offset="1" stop-color="#929292"/></linearGradient><linearGradient x1="5020" y1="2457" x2="4934" y2="2457" gradientUnits="userSpaceOnUse" spreadMethod="reflect" id="fill11"><stop offset="0" stop-color="#AFAFAF"/><stop offset="0.5" stop-color="#A5A5A5"/><stop offset="1" stop-color="#929292"/></linearGradient><linearGradient x1="4525" y1="867" x2="4525" y2="946" gradientUnits="userSpaceOnUse" spreadMethod="reflect" id="fill12"><stop offset="0" stop-color="#AFAFAF"/><stop offset="0.5" stop-color="#A5A5A5"/><stop offset="1" stop-color="#929292"/></linearGradient><linearGradient x1="4548" y1="3379" x2="4462" y2="3379" gradientUnits="userSpaceOnUse" spreadMethod="reflect" id="fill13"><stop offset="0" stop-color="#AFAFAF"/><stop offset="0.5" stop-color="#A5A5A5"/><stop offset="1" stop-color="#929292"/></linearGradient><linearGradient x1="5173" y1="3388.5" x2="5087" y2="3388.5" gradientUnits="userSpaceOnUse" spreadMethod="reflect" id="fill14"><stop offset="0" stop-color="#AFAFAF"/><stop offset="0.5" stop-color="#A5A5A5"/><stop offset="1" stop-color="#929292"/></linearGradient><linearGradient x1="5479" y1="1445" x2="5393" y2="1445" gradientUnits="userSpaceOnUse" spreadMethod="reflect" id="fill15"><stop offset="0" stop-color="#AFAFAF"/><stop offset="0.5" stop-color="#A5A5A5"/><stop offset="1" stop-color="#929292"/></linearGradient><linearGradient x1="5181" y1="1534.5" x2="5095" y2="1534.5" gradientUnits="userSpaceOnUse" spreadMethod="reflect" id="fill16"><stop offset="0" stop-color="#AFAFAF"/><stop offset="0.5" stop-color="#A5A5A5"/><stop offset="1" stop-color="#929292"/></linearGradient></defs><g clip-path="url(#clip0)" transform="translate(-3897 -603)"><path d="M5212 1689.5C5212 1648.36 5245.36 1615 5286.5 1615L5698.5 1615C5739.64 1615 5773 1648.36 5773 1689.5L5773 1987.5C5773 2028.64 5739.64 2062 5698.5 2062L5286.5 2062C5245.36 2062 5212 2028.64 5212 1987.5Z" fill="#FFC000" fill-rule="evenodd" fill-opacity="0.501961"/><path d="M3916.5 2227.84C3916.5 2151.44 3978.43 2089.5 4054.84 2089.5L5606.16 2089.5C5682.56 2089.5 5744.5 2151.44 5744.5 2227.84L5744.5 2781.16C5744.5 2857.57 5682.56 2919.5 5606.16 2919.5L4054.84 2919.5C3978.43 2919.5 3916.5 2857.57 3916.5 2781.16Z" stroke="#AFABAB" stroke-width="3.4375" stroke-linejoin="round" stroke-miterlimit="10" fill="#FFC000" fill-rule="evenodd" fill-opacity="0.501961"/><path d="M3999.5 3101.17C3999.5 3037.84 4050.84 2986.5 4114.17 2986.5L4656.83 2986.5C4720.16 2986.5 4771.5 3037.84 4771.5 3101.17L4771.5 3559.83C4771.5 3623.16 4720.16 3674.5 4656.83 3674.5L4114.17 3674.5C4050.84 3674.5 3999.5 3623.16 3999.5 3559.83Z" stroke="#AFABAB" stroke-width="3.4375" stroke-linejoin="round" stroke-miterlimit="10" fill="#FFC000" fill-rule="evenodd" fill-opacity="0.501961"/><path d="M4808.5 3102C4808.5 3038.76 4859.76 2987.5 4923 2987.5L5432 2987.5C5495.24 2987.5 5546.5 3038.76 5546.5 3102L5546.5 3560C5546.5 3623.24 5495.24 3674.5 5432 3674.5L4923 3674.5C4859.76 3674.5 4808.5 3623.24 4808.5 3560Z" stroke="#AFABAB" stroke-width="3.4375" stroke-linejoin="round" stroke-miterlimit="10" fill="#FFC000" fill-rule="evenodd" fill-opacity="0.501961"/><path d="M5445.5 1653 5445.5 1837 5467 1837 5424 1880 5381 1837 5402.5 1837 5402.5 1653Z" stroke="#A5A5A5" stroke-width="2.29167" stroke-miterlimit="8" fill="url(#fill1)" fill-rule="evenodd"/><path d="M5452.5 2014 5452.5 2179 5474 2179 5431 2222 5388 2179 5409.5 2179 5409.5 2014Z" stroke="#A5A5A5" stroke-width="2.29167" stroke-miterlimit="8" fill="url(#fill2)" fill-rule="evenodd"/><path d="M5029.5 2883 5029.5 3112 5051 3112 5008 3155 4965 3112 4986.5 3112 4986.5 2883Z" stroke="#A5A5A5" stroke-width="2.29167" stroke-miterlimit="8" fill="url(#fill3)" fill-rule="evenodd"/><path d="M5142.5 2777 5142.5 3112 5164 3112 5121 3155 5078 3112 5099.5 3112 5099.5 2777Z" stroke="#A5A5A5" stroke-width="2.29167" stroke-miterlimit="8" fill="url(#fill4)" fill-rule="evenodd"/><path d="M4610.5 2869 4610.5 3098 4632 3098 4589 3141 4546 3098 4567.5 3098 4567.5 2869Z" stroke="#A5A5A5" stroke-width="2.29167" stroke-miterlimit="8" fill="url(#fill5)" fill-rule="evenodd"/><path d="M4582.5 2006 4582.5 2179 4604 2179 4561 2222 4518 2179 4539.5 2179 4539.5 2006Z" stroke="#A5A5A5" stroke-width="2.29167" stroke-miterlimit="8" fill="url(#fill6)" fill-rule="evenodd"/><path d="M5007.5 1202 5007.5 2179 5029 2179 4986 2222 4943 2179 4964.5 2179 4964.5 1202Z" stroke="#A5A5A5" stroke-width="2.29167" stroke-miterlimit="8" fill="url(#fill7)" fill-rule="evenodd"/><path d="M3994 1041.5 4141 1041.5 4176.5 1077 4176.5 1254.5 3958.5 1254.5 3958.5 1077C3958.5 1057.39 3974.39 1041.5 3994 1041.5Z" stroke="#FFFFFF" stroke-width="6.875" stroke-miterlimit="8" fill="#FFC000" fill-rule="evenodd"/><text font-family="Calibri,Calibri_MSFontService,sans-serif" font-weight="700" font-size="46" transform="matrix(1 0 0 1 4016.97 1168)">.GBK</text><path d="M4028 1068.5 4175 1068.5 4210.5 1104 4210.5 1281.5 3992.5 1281.5 3992.5 1104C3992.5 1084.39 4008.39 1068.5 4028 1068.5Z" stroke="#FFFFFF" stroke-width="6.875" stroke-miterlimit="8" fill="#FFC000" fill-rule="evenodd"/><text font-family="Calibri,Calibri_MSFontService,sans-serif" font-weight="700" font-size="46" transform="matrix(1 0 0 1 4051.35 1195)">.GBK</text><path d="M4073 1096.5 4220 1096.5 4255.5 1132 4255.5 1309.5 4037.5 1309.5 4037.5 1132C4037.5 1112.39 4053.39 1096.5 4073 1096.5Z" stroke="#FFFFFF" stroke-width="6.875" stroke-miterlimit="8" fill="#FFC000" fill-rule="evenodd"/><text font-family="Calibri,Calibri_MSFontService,sans-serif" font-weight="700" font-size="46" transform="matrix(1 0 0 1 4087.33 1223)">.GBFF</text><path d="M4836 934.5 4983 934.5 5018.5 970.001 5018.5 1147.5 4800.5 1147.5 4800.5 970.001C4800.5 950.394 4816.39 934.5 4836 934.5Z" stroke="#FFFFFF" stroke-width="6.875" stroke-miterlimit="8" fill="#FFC000" fill-rule="evenodd"/><text font-family="Calibri,Calibri_MSFontService,sans-serif" font-weight="700" font-size="46" transform="matrix(1 0 0 1 4859.16 1061)">.GBK</text><path d="M4870 962.5 5017 962.5 5052.5 998.001 5052.5 1175.5 4834.5 1175.5 4834.5 998.001C4834.5 978.394 4850.39 962.5 4870 962.5Z" stroke="#FFFFFF" stroke-width="6.875" stroke-miterlimit="8" fill="#FFC000" fill-rule="evenodd"/><text font-family="Calibri,Calibri_MSFontService,sans-serif" font-weight="700" font-size="46" transform="matrix(1 0 0 1 4893.53 1089)">.GBK</text><path d="M4915 989.5 5062 989.5 5097.5 1025 5097.5 1202.5 4879.5 1202.5 4879.5 1025C4879.5 1005.39 4895.39 989.5 4915 989.5Z" stroke="#FFFFFF" stroke-width="6.875" stroke-miterlimit="8" fill="#FFC000" fill-rule="evenodd"/><text font-family="Calibri,Calibri_MSFontService,sans-serif" font-weight="700" font-size="46" transform="matrix(1 0 0 1 4940.12 1116)">.PEG</text><path d="M4272 1182.75 4738.5 1182.75 4738.5 1163 4778 1202.5 4738.5 1242 4738.5 1222.25 4272 1222.25Z" stroke="#A5A5A5" stroke-width="2.29167" stroke-miterlimit="8" fill="url(#fill8)" fill-rule="evenodd"/><path d="M4354.5 1130.5 4684.5 1130.5 4684.5 1251.59C4519.5 1251.59 4519.5 1297.73 4354.5 1271.52Z" stroke="#FFFFFF" stroke-width="6.875" stroke-miterlimit="8" fill="#5B9BD5" fill-rule="evenodd"/><text fill="#FFFFFF" font-family="Calibri,Calibri_MSFontService,sans-serif" font-weight="700" font-size="46" transform="matrix(1 0 0 1 4419.91 1206)">gb2peg.py<tspan fill="#000000" font-family="Arial,Arial_MSFontService,sans-serif" font-weight="400" font-size="55" x="-396.611" y="-533">Conversion to the internal </tspan><tspan fill="#000000" font-family="Arial,Arial_MSFontService,sans-serif" font-weight="400" font-size="55" x="-396.611" y="-467">genomic format</tspan></text><path d="M3898.5 735.336C3898.5 669.152 3952.15 615.5 4018.34 615.5L4596.66 615.5C4662.85 615.5 4716.5 669.152 4716.5 735.336L4716.5 1214.66C4716.5 1280.85 4662.85 1334.5 4596.66 1334.5L4018.34 1334.5C3952.15 1334.5 3898.5 1280.85 3898.5 1214.66Z" stroke="#A5A5A5" stroke-width="3.4375" stroke-linejoin="round" stroke-miterlimit="10" fill="none" fill-rule="evenodd"/><path d="M3916.5 1500.17C3916.5 1439.05 3966.05 1389.5 4027.17 1389.5L4623.83 1389.5C4684.95 1389.5 4734.5 1439.05 4734.5 1500.17L4734.5 1942.83C4734.5 2003.95 4684.95 2053.5 4623.83 2053.5L4027.17 2053.5C3966.05 2053.5 3916.5 2003.95 3916.5 1942.83Z" stroke="#A5A5A5" stroke-width="3.4375" stroke-linejoin="round" stroke-miterlimit="10" fill="none" fill-rule="evenodd"/><text font-family="Arial,Arial_MSFontService,sans-serif" font-weight="400" font-size="55" transform="matrix(1 0 0 1 4009.74 1442)">Extraction of HGT pool</text><path d="M4809.17 1455.5 4931.83 1455.5 4962.5 1486.17 4962.5 1667.5 4778.5 1667.5 4778.5 1486.17C4778.5 1469.23 4792.23 1455.5 4809.17 1455.5Z" stroke="#FFFFFF" stroke-width="6.875" stroke-miterlimit="8" fill="#FFC000" fill-rule="evenodd"/><text font-family="Calibri,Calibri_MSFontService,sans-serif" font-weight="700" font-size="46" transform="matrix(1 0 0 1 4837.98 1581)">list</text><path d="M4248.5 1508.5 4649.5 1508.5 4649.5 1629.59C4449 1629.59 4449 1675.73 4248.5 1649.52Z" stroke="#FFFFFF" stroke-width="6.875" stroke-miterlimit="8" fill="#5B9BD5" fill-rule="evenodd"/><text fill="#FFFFFF" font-family="Calibri,Calibri_MSFontService,sans-serif" font-weight="700" font-size="46" transform="matrix(1 0 0 1 4292.2 1584)">create_hgt_pool</text><path d="M4771 1577.5 4692 1577.5 4692 1599 4649 1556 4692 1513 4692 1534.5 4771 1534.5Z" stroke="#A5A5A5" stroke-width="2.29167" stroke-miterlimit="8" fill="url(#fill9)" fill-rule="evenodd"/><path d="M4501.17 1787.5 4619.83 1787.5 4649.5 1817.17 4649.5 2000.5 4471.5 2000.5 4471.5 1817.17C4471.5 1800.78 4484.78 1787.5 4501.17 1787.5Z" stroke="#FFFFFF" stroke-width="6.875" stroke-miterlimit="8" fill="#FFC000" fill-rule="evenodd"/><text font-family="Calibri,Calibri_MSFontService,sans-serif" font-weight="700" font-size="46" transform="matrix(1 0 0 1 4516.49 1886)">HGT <tspan font-size="46" x="-2.2915" y="55">pool</tspan></text><path d="M4582.5 1653 4582.5 1732 4604 1732 4561 1775 4518 1732 4539.5 1732 4539.5 1653Z" stroke="#A5A5A5" stroke-width="2.29167" stroke-miterlimit="8" fill="url(#fill10)" fill-rule="evenodd"/><path d="M4256.5 2230.5 5698.5 2230.5 5698.5 2351.59C4977.5 2351.59 4977.5 2397.73 4256.5 2371.52Z" stroke="#FFFFFF" stroke-width="6.875" stroke-miterlimit="8" fill="#5B9BD5" fill-rule="evenodd"/><text fill="#FFFFFF" font-family="Calibri,Calibri_MSFontService,sans-serif" font-weight="700" font-size="46" transform="matrix(1 0 0 1 4914.47 2306)">evolve<tspan fill="#000000" font-family="Arial,Arial_MSFontService,sans-serif" font-weight="400" font-size="55" x="-915.036" y="-146">Creation of the synthetic population</tspan></text><path d="M4685.17 2672.5 5185.83 2672.5 5202.5 2689.17 5202.5 2772.5 4668.5 2772.5 4668.5 2689.17C4668.5 2679.96 4675.96 2672.5 4685.17 2672.5Z" stroke="#FFFFFF" stroke-width="6.875" stroke-miterlimit="8" fill="#FFC000" fill-rule="evenodd"/><text font-family="Calibri,Calibri_MSFontService,sans-serif" font-weight="700" font-size="46" transform="matrix(1 0 0 1 4739.52 2740)">.<tspan font-size="46" x="12.0313" y="0">genome_sequences</tspan></text><path d="M5244.33 1889.5 5640.67 1889.5 5658.5 1907.33 5658.5 1996.5 5226.5 1996.5 5226.5 1907.33C5226.5 1897.48 5234.48 1889.5 5244.33 1889.5Z" stroke="#FFFFFF" stroke-width="6.875" stroke-miterlimit="8" fill="#FFC000" fill-rule="evenodd"/><text font-family="Calibri,Calibri_MSFontService,sans-serif" font-weight="700" font-size="46" transform="matrix(1 0 0 1 5272.85 1961)">.<tspan font-size="46" x="12.0313" y="0">genome_parents</tspan></text><path d="M4553.17 2777.5 5053.83 2777.5 5070.5 2794.17 5070.5 2877.5 4536.5 2877.5 4536.5 2794.17C4536.5 2784.96 4543.96 2777.5 4553.17 2777.5Z" stroke="#FFFFFF" stroke-width="6.875" stroke-miterlimit="8" fill="#FFC000" fill-rule="evenodd"/><text font-family="Calibri,Calibri_MSFontService,sans-serif" font-weight="700" font-size="46" transform="matrix(1 0 0 1 4739.74 2845)">.genes</text><path d="M4621.17 2535.5 5121.83 2535.5 5138.5 2552.17 5138.5 2635.5 4604.5 2635.5 4604.5 2552.17C4604.5 2542.96 4611.96 2535.5 4621.17 2535.5Z" stroke="#FFFFFF" stroke-width="6.875" stroke-miterlimit="8" fill="#FFC000" fill-rule="evenodd"/><text font-family="Calibri,Calibri_MSFontService,sans-serif" font-weight="700" font-size="46" transform="matrix(1 0 0 1 4733.16 2603)">.<tspan font-size="46" x="12.0313" y="0">gene_parents</tspan></text><path d="M4998.5 2396 4998.5 2475 5020 2475 4977 2518 4934 2475 4955.5 2475 4955.5 2396Z" stroke="#A5A5A5" stroke-width="2.29167" stroke-miterlimit="8" fill="url(#fill11)" fill-rule="evenodd"/><text font-family="Arial,Arial_MSFontService,sans-serif" font-weight="400" font-size="55" transform="matrix(1 0 0 1 4044.86 3053)">Extraction of the <tspan font-size="55" x="0" y="66">pangenomic</tspan><tspan font-size="55" x="313.386" y="66">information</tspan></text><path d="M4210.5 3152.5 4655.5 3152.5 4655.5 3273.59C4433 3273.59 4433 3319.73 4210.5 3293.52Z" stroke="#FFFFFF" stroke-width="6.875" stroke-miterlimit="8" fill="#5B9BD5" fill-rule="evenodd"/><text fill="#FFFFFF" font-family="Calibri,Calibri_MSFontService,sans-serif" font-weight="700" font-size="46" transform="matrix(1 0 0 1 4261.93 3228)">get_pan_distrs.py</text><path d="M3994 745.5 4141 745.5 4176.5 781.001 4176.5 958.5 3958.5 958.5 3958.5 781.001C3958.5 761.394 3974.39 745.5 3994 745.5Z" stroke="#FFFFFF" stroke-width="6.875" stroke-miterlimit="8" fill="#FFC000" fill-rule="evenodd"/><text font-family="Calibri,Calibri_MSFontService,sans-serif" font-weight="700" font-size="46" transform="matrix(1 0 0 1 4016.97 872)">.GBK</text><path d="M4027.83 773.5 4175.17 773.5 4210.5 808.834 4210.5 985.5 3992.5 985.5 3992.5 808.834C3992.5 789.319 4008.32 773.5 4027.83 773.5Z" stroke="#FFFFFF" stroke-width="6.875" stroke-miterlimit="8" fill="#FFC000" fill-rule="evenodd"/><text font-family="Calibri,Calibri_MSFontService,sans-serif" font-weight="700" font-size="46" transform="matrix(1 0 0 1 4051.35 900)">.GBK</text><path d="M4073 800.5 4220 800.5 4255.5 836.001 4255.5 1013.5 4037.5 1013.5 4037.5 836.001C4037.5 816.394 4053.39 800.5 4073 800.5Z" stroke="#FFFFFF" stroke-width="6.875" stroke-miterlimit="8" fill="#FFC000" fill-rule="evenodd"/><text font-family="Calibri,Calibri_MSFontService,sans-serif" font-weight="700" font-size="46" transform="matrix(1 0 0 1 4088.77 900)">.GFF+<tspan font-size="46" x="-7.17285" y="55">FASTA</tspan></text><path d="M4272 886.75 4738.5 886.75 4738.5 867 4778 906.5 4738.5 946 4738.5 926.25 4272 926.25Z" stroke="#A5A5A5" stroke-width="2.29167" stroke-miterlimit="8" fill="url(#fill12)" fill-rule="evenodd"/><path d="M4354.5 834.5 4684.5 834.5 4684.5 955.594C4519.5 955.594 4519.5 1001.73 4354.5 975.517Z" stroke="#FFFFFF" stroke-width="6.875" stroke-miterlimit="8" fill="#5B9BD5" fill-rule="evenodd"/><text fill="#FFFFFF" font-family="Calibri,Calibri_MSFontService,sans-serif" font-weight="700" font-size="46" transform="matrix(1 0 0 1 4417.91 910)">gff2peg.py</text><path d="M4526.5 3303 4526.5 3412 4548 3412 4505 3455 4462 3412 4483.5 3412 4483.5 3303Z" stroke="#A5A5A5" stroke-width="2.29167" stroke-miterlimit="8" fill="url(#fill13)" fill-rule="evenodd"/><text font-family="Arial,Arial_MSFontService,sans-serif" font-weight="400" font-size="55" transform="matrix(1 0 0 1 4876.1 3082)">To  external output  formats</text><path d="M4909.5 3162.5 5280.5 3162.5 5280.5 3283.59C5095 3283.59 5095 3329.73 4909.5 3303.52Z" stroke="#FFFFFF" stroke-width="6.875" stroke-miterlimit="8" fill="#5B9BD5" fill-rule="evenodd"/><text fill="#FFFFFF" font-family="Calibri,Calibri_MSFontService,sans-serif" font-weight="700" font-size="46" transform="matrix(1 0 0 1 4977.68 3238)">pegs2gxx.py</text><path d="M5151.5 3313 5151.5 3421 5173 3421 5130 3464 5087 3421 5108.5 3421 5108.5 3313Z" stroke="#A5A5A5" stroke-width="2.29167" stroke-miterlimit="8" fill="url(#fill14)" fill-rule="evenodd"/><path d="M5005.17 3505.5 5250.83 3505.5 5267.5 3522.17 5267.5 3605.5 4988.5 3605.5 4988.5 3522.17C4988.5 3512.96 4995.96 3505.5 5005.17 3505.5Z" stroke="#FFFFFF" stroke-width="6.875" stroke-miterlimit="8" fill="#FFC000" fill-rule="evenodd"/><text font-family="Calibri,Calibri_MSFontService,sans-serif" font-weight="700" font-size="46" transform="matrix(1 0 0 1 5084.19 3573)">.GFF</text><path d="M4980.17 3532.5 5263.83 3532.5 5280.5 3549.17 5280.5 3632.5 4963.5 3632.5 4963.5 3549.17C4963.5 3539.96 4970.96 3532.5 4980.17 3532.5Z" stroke="#FFFFFF" stroke-width="6.875" stroke-miterlimit="8" fill="#FFC000" fill-rule="evenodd"/><text font-family="Calibri,Calibri_MSFontService,sans-serif" font-weight="700" font-size="46" transform="matrix(1 0 0 1 5005.99 3600)">.GFF+FASTA</text><path d="M5211.17 3423.5 5456.83 3423.5 5473.5 3440.17 5473.5 3523.5 5194.5 3523.5 5194.5 3440.17C5194.5 3430.96 5201.96 3423.5 5211.17 3423.5Z" stroke="#FFFFFF" stroke-width="6.875" stroke-miterlimit="8" fill="#FFC000" fill-rule="evenodd"/><text font-family="Calibri,Calibri_MSFontService,sans-serif" font-weight="700" font-size="46" transform="matrix(1 0 0 1 5290.08 3491)">.GFF</text><path d="M5186.17 3450.5 5431.83 3450.5 5448.5 3467.17 5448.5 3550.5 5169.5 3550.5 5169.5 3467.17C5169.5 3457.96 5176.96 3450.5 5186.17 3450.5Z" stroke="#FFFFFF" stroke-width="6.875" stroke-miterlimit="8" fill="#FFC000" fill-rule="evenodd"/><text font-family="Calibri,Calibri_MSFontService,sans-serif" font-weight="700" font-size="46" transform="matrix(1 0 0 1 5252.01 3518)">.GBFF</text><path d="M5340.5 1615.5 5756.5 1615.5 5756.5 1737.4C5548.5 1737.4 5548.5 1783.84 5340.5 1757.45Z" stroke="#FFFFFF" stroke-width="6.875" stroke-miterlimit="8" fill="#5B9BD5" fill-rule="evenodd"/><text fill="#FFFFFF" font-family="Calibri,Calibri_MSFontService,sans-serif" font-weight="700" font-size="46" transform="matrix(1 0 0 1 5383.6 1691)">generate_tree.py</text><path d="M5236.5 1503.5 5653.5 1503.5 5653.5 1624.59C5445 1624.59 5445 1670.73 5236.5 1644.52Z" stroke="#FFFFFF" stroke-width="6.875" stroke-miterlimit="8" fill="#5B9BD5" fill-rule="evenodd"/><text fill="#FFFFFF" font-family="Calibri,Calibri_MSFontService,sans-serif" font-weight="700" font-size="46" transform="matrix(1 0 0 1 5276.22 1579)">phyloxml2tree.py</text><path d="M5363 1167.5 5511 1167.5 5546.5 1203 5546.5 1380.5 5327.5 1380.5 5327.5 1203C5327.5 1183.39 5343.39 1167.5 5363 1167.5Z" stroke="#FFFFFF" stroke-width="6.875" stroke-miterlimit="8" fill="#FFC000" fill-rule="evenodd"/><text font-family="Calibri,Calibri_MSFontService,sans-serif" font-weight="700" font-size="46" transform="matrix(1 0 0 1 5373.18 1267)">.<tspan font-size="46" x="12.0313" y="0">Phylo</tspan><tspan font-size="46" x="17.1875" y="55">XML</tspan></text><path d="M5457.5 1384 5457.5 1463 5479 1463 5436 1506 5393 1463 5414.5 1463 5414.5 1384Z" stroke="#A5A5A5" stroke-width="2.29167" stroke-miterlimit="8" fill="url(#fill15)" fill-rule="evenodd"/><path d="M5201.5 1072.84C5201.5 1020.18 5244.18 977.5 5296.83 977.5L5678.17 977.5C5730.82 977.5 5773.5 1020.18 5773.5 1072.84L5773.5 1967.17C5773.5 2019.82 5730.82 2062.5 5678.17 2062.5L5296.83 2062.5C5244.18 2062.5 5201.5 2019.82 5201.5 1967.17Z" stroke="#A5A5A5" stroke-width="3.4375" stroke-linejoin="round" stroke-miterlimit="10" fill="none" fill-rule="evenodd"/><text font-family="Arial,Arial_MSFontService,sans-serif" font-weight="400" font-size="55" transform="matrix(1 0 0 1 5244.65 1053)">Phylogenomic tree<tspan font-size="55" x="0" y="66">conversion/generation</tspan></text><path d="M4953.5 651.5 5323.5 651.5 5354.5 682.501 5354.5 837.5 4922.5 837.5 4922.5 682.501C4922.5 665.379 4936.38 651.5 4953.5 651.5Z" stroke="#FFFFFF" stroke-width="6.875" stroke-miterlimit="8" fill="#FFC000" fill-rule="evenodd"/><text font-family="Calibri,Calibri_MSFontService,sans-serif" font-weight="700" font-size="46" transform="matrix(1 0 0 1 5029.96 709)">Probability <tspan font-size="46" x="-10.8853" y="55">substitution </tspan><tspan font-size="46" x="42.396" y="110">matrix</tspan></text><path d="M5159.5 847 5159.5 2179 5181 2179 5138 2222 5095 2179 5116.5 2179 5116.5 847Z" stroke="#A5A5A5" stroke-width="2.29167" stroke-miterlimit="8" fill="url(#fill16)" fill-rule="evenodd"/><path d="M4324.17 3488.5 4717.83 3488.5 4734.5 3505.17 4734.5 3588.5 4307.5 3588.5 4307.5 3505.17C4307.5 3495.96 4314.96 3488.5 4324.17 3488.5Z" stroke="#FFFFFF" stroke-width="6.875" stroke-miterlimit="8" fill="#FFC000" fill-rule="evenodd"/><text font-family="Calibri,Calibri_MSFontService,sans-serif" font-weight="700" font-size="46" transform="matrix(1 0 0 1 4356.25 3555)">.<tspan font-size="46" x="12.0313" y="0">family_presence</tspan></text><path d="M4194.17 3409.5 4537.83 3409.5 4554.5 3426.17 4554.5 3509.5 4177.5 3509.5 4177.5 3426.17C4177.5 3416.96 4184.96 3409.5 4194.17 3409.5Z" stroke="#FFFFFF" stroke-width="6.875" stroke-miterlimit="8" fill="#FFC000" fill-rule="evenodd"/><text font-family="Calibri,Calibri_MSFontService,sans-serif" font-weight="700" font-size="46" transform="matrix(1 0 0 1 4225.32 3477)">.<tspan font-size="46" x="12.0313" y="0">gene_families</tspan></text><path d="M4177.17 3571.5 4571.83 3571.5 4588.5 3588.17 4588.5 3671.5 4160.5 3671.5 4160.5 3588.17C4160.5 3578.96 4167.96 3571.5 4177.17 3571.5Z" stroke="#FFFFFF" stroke-width="6.875" stroke-miterlimit="8" fill="#FFC000" fill-rule="evenodd"/><text font-family="Calibri,Calibri_MSFontService,sans-serif" font-weight="700" font-size="46" transform="matrix(1 0 0 1 4207.04 3639)">.<tspan font-size="46" x="12.0313" y="0">pan_distribution</tspan></text></g></svg>